<svg width="43" height="43" viewBox="0 0 43 43" fill="none" xmlns="http://www.w3.org/2000/svg">
	<rect width="43" height="43" rx="21.5" fill="currentColor" />
	<path d="M34.8008 21.3853C34.8008 21.5107 34.8008 21.6366 34.8008 21.7621C34.6137 22.2217 34.2673 22.3536 33.7842 22.3703C31.5669 22.4451 29.3733 22.7282 27.2134 23.2476C26.845 23.3364 26.4868 23.4672 26.1131 23.5819C26.3372 24.4877 26.6729 25.2972 27.1759 26.0228C27.5062 26.4986 27.8987 26.9313 28.2655 27.3813C28.5019 27.6714 28.5432 28.0035 28.3732 28.3044C28.2065 28.5999 27.8842 28.7759 27.5603 28.6876C27.3727 28.6365 27.1829 28.5197 27.0408 28.3835C26.3019 27.6757 25.4723 27.11 24.5286 26.7203C24.1613 26.5686 23.7784 26.4544 23.387 26.3177C23.3167 26.5169 23.2556 26.6654 23.2122 26.8188C22.5435 29.1774 22.2626 31.5947 22.1617 34.035C22.1419 34.5178 22.0148 34.8682 21.5564 35.0561C21.4314 35.0561 21.3059 35.0561 21.181 35.0561C20.8255 34.8919 20.596 34.6535 20.5831 34.224C20.5129 31.8885 20.2201 29.5811 19.6673 27.3097C19.5879 26.9835 19.4694 26.6676 19.3713 26.3538C18.7353 26.4507 17.6114 26.9136 16.9578 27.3856C16.4881 27.7247 16.0484 28.1063 15.6038 28.4793C15.1223 28.8835 14.451 28.7129 14.2901 28.1321C14.1925 27.7801 14.3384 27.5062 14.5786 27.2613C15.2816 26.5443 15.8344 25.723 16.2194 24.794C16.3787 24.4097 16.4993 24.0087 16.6436 23.5969C16.4441 23.5275 16.2961 23.4672 16.1427 23.4236C13.7931 22.7535 11.3849 22.4698 8.95372 22.3692C8.4722 22.3493 8.12366 22.2212 7.93652 21.761C7.93652 21.6356 7.93652 21.5096 7.93652 21.3842C8.10007 21.0274 8.33761 20.797 8.76604 20.7841C11.0927 20.7146 13.3914 20.4175 15.6543 19.8653C15.9792 19.7862 16.294 19.6661 16.6838 19.5429C16.421 18.9121 16.2012 18.3168 15.9283 17.7473C15.5845 17.032 15.0944 16.4146 14.5454 15.843C14.1389 15.4194 14.177 14.8586 14.6156 14.5674C14.9561 14.3413 15.3454 14.407 15.7009 14.7563C16.4173 15.4603 17.235 16.0147 18.1594 16.4028C18.5423 16.5632 18.9418 16.6837 19.3514 16.8291C19.4206 16.6288 19.4812 16.4803 19.5246 16.3264C20.1944 13.9586 20.478 11.5328 20.5762 9.08324C20.5955 8.60528 20.7397 8.27373 21.1815 8.08911C21.3065 8.08911 21.432 8.08911 21.5569 8.08911C22.0159 8.27642 22.1693 8.62197 22.1617 9.11015C22.1542 9.64624 22.2073 10.1845 22.255 10.72C22.4036 12.3902 22.6304 14.0496 23.0283 15.6805C23.1205 16.0583 23.2513 16.427 23.3859 16.8694C24.0111 16.6089 24.5972 16.3952 25.1565 16.1245C25.8772 15.7757 26.5008 15.28 27.0772 14.7229C27.4906 14.323 28.0333 14.3505 28.3336 14.7708C28.5759 15.1099 28.5143 15.5179 28.1588 15.8828C27.4311 16.6288 26.867 17.4836 26.4767 18.4497C26.334 18.8028 26.2273 19.1704 26.1077 19.5208C26.1716 19.5617 26.1919 19.5811 26.2166 19.5897C26.3426 19.6349 26.4675 19.6839 26.5962 19.7205C28.9459 20.3917 31.3541 20.6737 33.7853 20.7749C34.2662 20.797 34.6132 20.9262 34.8008 21.3853ZM21.3832 15.6799C21.3671 15.6799 21.3505 15.6799 21.3344 15.6799C21.3027 15.8091 21.2807 15.9415 21.2373 16.0664C21.025 16.6735 20.8368 17.2925 20.581 17.8813C20.3327 18.4529 20.0131 18.5854 19.4136 18.4395C18.9547 18.3281 18.5037 18.1854 18.049 18.0568C17.9712 18.0347 17.8935 18.0143 17.8184 17.9938C17.9669 18.5514 18.1187 19.0752 18.2452 19.6053C18.3895 20.2092 18.2586 20.5359 17.6956 20.7808C17.1004 21.0397 16.4757 21.2308 15.8623 21.4477C15.7427 21.4902 15.6167 21.5145 15.4939 21.5473C15.6172 21.6361 15.7395 21.6576 15.8548 21.6985C16.4763 21.9187 17.1095 22.1119 17.7128 22.3751C18.2538 22.6114 18.3895 22.9446 18.2533 23.5087C18.1396 23.978 17.9964 24.4398 17.8661 24.9048C17.8442 24.9834 17.8211 25.062 17.7991 25.1395C18.3557 24.9894 18.8774 24.8365 19.4056 24.71C20.0249 24.5614 20.33 24.6896 20.588 25.2832C20.84 25.864 21.025 26.4738 21.2346 27.0729C21.2807 27.2048 21.3059 27.3436 21.3413 27.4787C21.432 27.342 21.4566 27.2021 21.5027 27.0697C21.7124 26.4706 21.8985 25.8608 22.1505 25.28C22.4063 24.6906 22.713 24.5711 23.3355 24.7073C23.4835 24.7396 23.6331 24.7687 23.779 24.8107C24.1597 24.9199 24.5388 25.0356 24.9468 25.1578C24.9157 25.0523 24.8927 24.978 24.8712 24.9027C24.7382 24.429 24.5929 23.9581 24.4777 23.4807C24.3543 22.9715 24.4755 22.6787 24.9334 22.4246C25.2439 22.2519 25.5764 22.1119 25.9115 21.9935C26.3517 21.8385 26.8043 21.7195 27.3308 21.5608C27.1153 21.5069 26.9786 21.4752 26.8424 21.4386C26.1517 21.2534 25.4654 21.0553 24.8492 20.6732C24.5039 20.459 24.3768 20.1511 24.4583 19.7544C24.4964 19.5703 24.5302 19.3846 24.5811 19.2038C24.6932 18.8044 24.8144 18.4072 24.9399 17.9814C24.8417 18.0116 24.7758 18.0331 24.7093 18.052C24.2289 18.1876 23.7511 18.3361 23.2663 18.454C22.7618 18.5773 22.4679 18.4519 22.2154 17.9933C22.0481 17.6892 21.9081 17.3652 21.7939 17.0368C21.6373 16.5912 21.5178 16.1331 21.3832 15.6799Z" fill="white" />
</svg>
