<svg width="48" height="48" viewBox="0 0 48 48" fill="none" xmlns="http://www.w3.org/2000/svg">
	<rect width="48" height="48" rx="24" fill="currentColor" />
	<path d="M38.9881 25.5778C38.9881 26.1566 38.9881 26.7349 38.9881 27.3137C38.9492 27.6076 38.9085 27.9009 38.872 28.1948C38.5733 30.5878 37.7179 32.763 36.3059 34.7167C36.1946 34.8706 36.0276 35.0112 35.8552 35.0878C35.5008 35.2453 35.1231 35.1327 34.8789 34.8502C34.6186 34.5491 34.6132 34.1696 34.8388 33.7345C36.8165 29.927 36.6375 26.2087 34.369 22.5796C34.2899 22.4533 34.1972 22.3348 34.1074 22.2157C34.0188 22.0984 33.926 21.9841 33.8356 21.8685C34.2971 23.0178 34.6461 24.1772 34.7766 25.3977C35.1076 28.4934 34.3821 31.3127 32.4529 33.7626C30.3191 36.4729 27.4962 38.0914 24.1179 38.7445C23.5535 38.8534 22.9783 38.9073 22.4078 38.9863C21.829 38.9863 21.2508 38.9863 20.672 38.9863C20.347 38.9456 20.0214 38.9079 19.6969 38.8648C17.3284 38.5499 15.1736 37.6958 13.242 36.288C12.8147 35.9767 12.7099 35.4751 12.9613 35.0788C13.2229 34.6658 13.7149 34.5593 14.2003 34.8107C14.4302 34.9298 14.6552 35.0603 14.8917 35.165C18.3987 36.7195 21.8057 36.525 25.1038 34.5635C25.4551 34.3546 25.7772 34.0972 26.113 33.862C25.998 33.8434 25.9154 33.8721 25.8352 33.9075C24.7955 34.3606 23.7151 34.6628 22.5862 34.7826C19.3641 35.1243 16.4593 34.3223 13.9651 32.2506C11.4691 30.1772 9.93975 27.4956 9.28791 24.3203C9.15862 23.6894 9.09397 23.0453 9 22.4072C9 21.8087 9 21.2101 9 20.6116C9.03891 20.338 9.0814 20.0645 9.11552 19.7903C9.4148 17.3973 10.2684 15.2215 11.6822 13.269C11.7935 13.1151 11.9605 12.9739 12.1329 12.8973C12.4884 12.7398 12.8649 12.8518 13.1091 13.1349C13.3695 13.4366 13.3755 13.8166 13.1498 14.2512C11.1698 18.0587 11.3506 21.7776 13.6203 25.4049C13.7771 25.6551 13.9681 25.8837 14.1429 26.1225C14.068 25.7915 13.9417 25.4988 13.8352 25.1995C13.7251 24.8901 13.6191 24.5776 13.5359 24.2604C12.7847 21.3813 13.0098 18.5794 14.4266 15.9583C16.4617 12.1927 19.743 10.1008 23.8695 9.24242C24.4322 9.1251 25.0098 9.07901 25.5802 9C26.159 9 26.7373 9 27.3161 9C27.413 9.01736 27.51 9.04369 27.6076 9.05088C29.1016 9.16281 30.5351 9.52135 31.9166 10.0966C32.8869 10.5006 33.7943 11.0172 34.6527 11.6229C34.9867 11.8587 35.2081 12.1425 35.1441 12.5716C35.0441 13.2444 34.3839 13.4862 33.7069 13.1349C30.0599 11.2422 26.4559 11.3338 22.9082 13.4072C22.5467 13.6185 22.2169 13.8837 21.8727 14.1237C21.9787 14.1471 22.0517 14.1207 22.1229 14.0896C23.2464 13.5994 24.4154 13.2845 25.6383 13.178C28.582 12.9212 31.2756 13.6197 33.6231 15.4208C36.3508 17.5146 37.9998 20.3099 38.699 23.6666C38.8301 24.2951 38.8935 24.9398 38.9881 25.5778ZM36.7081 23.0016C36.7327 22.9902 36.7566 22.9795 36.7812 22.9681C36.4358 22.178 36.1389 21.3615 35.7355 20.602C34.6072 18.4771 33.0294 16.7789 30.8111 15.765C28.5707 14.7408 26.2452 14.5864 23.8947 15.3119C21.6842 15.9942 19.9058 17.2841 18.6896 19.2875C18.4172 19.7359 17.9851 19.9064 17.5457 19.7251C17.1243 19.5509 16.9316 19.1355 17.0471 18.6321C17.6175 16.1373 18.9559 14.1375 20.9922 12.6093C21.6662 12.1036 22.3983 11.675 23.0776 11.2285C23.0866 11.2279 23.0477 11.2225 23.0142 11.2326C20.4499 12.015 18.2592 13.3821 16.7077 15.5878C14.6181 18.5603 14.3236 21.7883 15.7111 25.1349C16.4348 26.8803 17.6145 28.2845 19.2486 29.274C19.7275 29.5637 19.9088 29.9737 19.7341 30.4244C19.5629 30.865 19.1379 31.0511 18.5926 30.9254C15.8512 30.2921 13.7628 28.7281 12.1987 26.4254C11.8773 25.9525 11.5984 25.4509 11.3003 24.9625C11.2985 25.087 11.3284 25.1995 11.3649 25.3103C11.9066 26.9719 12.7548 28.4539 13.9082 29.772C16.5886 32.8354 20.9216 33.9308 24.7027 32.4637C26.6277 31.7167 28.19 30.5106 29.2776 28.7335C29.5691 28.257 29.9749 28.0751 30.4286 28.2516C30.8691 28.4234 31.0547 28.8478 30.9284 29.3937C30.2921 32.1465 28.7155 34.2385 26.4045 35.8061C25.9088 36.1425 25.3821 36.4334 24.8063 36.7836C24.9242 36.7584 24.9721 36.7518 25.017 36.7381C26.7989 36.197 28.4013 35.3302 29.7756 34.0691C32.5451 31.5264 33.6076 28.3857 32.8678 24.7087C32.347 22.1223 30.9535 20.0722 28.6724 18.6734C28.2397 18.4076 28.0834 17.9755 28.26 17.5445C28.4324 17.1237 28.8496 16.9292 29.3524 17.0447C31.8574 17.6193 33.8632 18.9637 35.3919 21.0144C35.8666 21.6495 36.2712 22.3378 36.7081 23.0016Z" fill="white" />
	<path d="M24.0033 28.6307C21.4397 28.6349 19.3591 26.5626 19.3555 24.0014C19.3513 21.4359 21.4217 19.3571 23.9842 19.3535C26.5496 19.3499 28.6284 21.4198 28.632 23.9822C28.6356 26.5477 26.5658 28.6271 24.0033 28.6307ZM26.8794 23.9936C26.88 22.4134 25.5919 21.1169 24.0105 21.1067C22.4201 21.0965 21.1093 22.399 21.1081 23.9906C21.1069 25.5702 22.3968 26.8679 23.977 26.8781C25.5674 26.8883 26.8782 25.5852 26.8794 23.9936Z" fill="white" />
</svg>
