<svg width="48" height="48" viewBox="0 0 48 48" fill="none" xmlns="http://www.w3.org/2000/svg">
	<rect width="48" height="48" rx="24" fill="currentColor" />
	<path d="M11.6562 38.9875C11.1342 38.7481 10.984 38.3362 11.0013 37.7772C11.0803 35.1752 12.1446 33.0461 14.0444 31.3085C14.7729 30.6423 15.5217 29.9988 16.2519 29.335C16.48 29.1279 16.6853 28.8945 16.8864 28.6604C17.394 28.0691 17.6298 27.3837 17.6268 26.599C17.6179 23.8258 17.5754 21.0521 17.6364 18.2807C17.7028 15.2706 18.8048 12.6453 20.8836 10.4581C21.5899 9.71469 22.4525 9.20172 23.4922 9.0437C23.5185 9.03951 23.5424 9.01496 23.567 9C23.8663 9 24.1655 9 24.4648 9C25.0951 9.15084 25.7033 9.35076 26.2498 9.71828C27.2488 10.3899 27.997 11.2895 28.6003 12.3113C29.7903 14.3254 30.4607 16.4785 30.4182 18.8494C30.3739 21.3023 30.4523 23.7576 30.3906 26.2099C30.3577 27.5016 30.8318 28.4875 31.7559 29.3177C32.5939 30.0707 33.4511 30.8039 34.2645 31.582C36.0243 33.267 36.9497 35.332 37.0305 37.7778C37.0491 38.335 36.9012 38.7498 36.3763 38.9881C28.1364 38.9875 19.8966 38.9875 11.6562 38.9875ZM19.3758 33.4436C22.4902 33.4436 25.5632 33.4436 28.6572 33.4436C28.6572 33.2885 28.6572 33.1599 28.6572 33.0306C28.6572 28.3534 28.6302 23.6756 28.6715 18.9984C28.6865 17.3021 28.3483 15.7153 27.6258 14.1991C27.1159 13.1295 26.4964 12.1323 25.5542 11.3793C24.9161 10.8693 24.1961 10.5497 23.3928 10.8789C22.9259 11.0704 22.4531 11.3583 22.1113 11.7235C20.3916 13.5611 19.4165 15.7572 19.3908 18.2777C19.3405 23.2237 19.3764 28.1708 19.3764 33.1174C19.3758 33.2173 19.3758 33.3161 19.3758 33.4436ZM35.2025 37.2337C35.1923 37.09 35.1911 36.9925 35.1779 36.8961C34.9978 35.5739 34.4932 34.3761 33.5684 33.4244C32.5915 32.4188 31.5177 31.5078 30.4846 30.5573C30.4762 30.5495 30.4487 30.5627 30.4259 30.5669C30.4211 30.5932 30.411 30.6213 30.411 30.6495C30.4098 32.7636 30.4122 34.8777 30.4056 36.9919C30.405 37.2014 30.49 37.2379 30.6725 37.2373C31.7296 37.2313 32.7867 37.2343 33.8437 37.2343C34.2807 37.2337 34.7182 37.2337 35.2025 37.2337ZM17.6238 30.4927C16.8667 31.1547 16.1633 31.7562 15.4744 32.3739C14.318 33.4095 13.3848 34.597 13.0047 36.1413C12.9203 36.4855 12.8736 36.8386 12.8006 37.2343C12.9568 37.2343 13.0532 37.2343 13.1502 37.2343C14.5263 37.2343 15.9024 37.2277 17.2785 37.2403C17.5466 37.2427 17.6328 37.1774 17.631 36.8955C17.6185 34.8712 17.6244 32.8468 17.6244 30.8231C17.6238 30.7357 17.6238 30.6489 17.6238 30.4927ZM19.3884 37.2067C22.495 37.2067 25.5662 37.2067 28.6572 37.2067C28.6572 36.6429 28.6434 36.1054 28.6632 35.5685C28.6733 35.2973 28.5973 35.2147 28.3172 35.2159C25.4477 35.2261 22.5788 35.2219 19.7092 35.2231C19.6045 35.2231 19.4997 35.2345 19.3884 35.2405C19.3884 35.9132 19.3884 36.5489 19.3884 37.2067Z" fill="white" />
	<path d="M24.0257 15.5489C25.4299 15.5567 26.5624 16.6395 26.6271 18.0347C26.6522 18.5854 26.3236 18.993 25.8202 19.0337C25.33 19.0732 24.9289 18.7021 24.8799 18.1634C24.832 17.6444 24.495 17.3092 24.0215 17.3098C23.5391 17.3098 23.2069 17.6343 23.1548 18.155C23.1003 18.7027 22.7131 19.0684 22.2222 19.0361C21.7129 19.0026 21.3783 18.5836 21.407 18.0156C21.477 16.6245 22.6275 15.5411 24.0257 15.5489Z" fill="white" />
</svg>
