<svg width="48" height="48" viewBox="0 0 48 48" fill="none" xmlns="http://www.w3.org/2000/svg">
	<rect width="48" height="48" rx="24" fill="currentColor" />
	<path d="M26.4545 38.9887C26.2947 38.9887 26.1355 38.9887 25.9756 38.9887C25.6829 38.9378 25.3914 38.8797 25.0975 38.8378C22.6117 38.4811 20.1259 38.1261 17.6394 37.7718C15.8042 37.5102 13.9684 37.2534 12.1332 36.9895C11.5472 36.9051 11.3024 36.6543 11.2126 36.0623C11.1516 35.6583 11.1019 35.2524 11.0445 34.8484C10.4519 30.6848 9.86528 26.52 9.25595 22.3588C9.18292 21.8584 9.3128 21.5076 9.66177 21.1592C13.313 17.5218 16.9523 13.8723 20.6011 10.233C21.0345 9.80088 21.5092 9.41002 21.9647 9C22.1245 9 22.2837 9 22.4435 9C22.7069 9.04549 22.969 9.09697 23.2336 9.13528C27.5648 9.75419 31.896 10.3713 36.2273 10.9896C36.8839 11.083 37.1233 11.3272 37.2155 11.985C37.3939 13.2582 37.5716 14.5319 37.753 15.8051C38.2187 19.0804 38.6772 22.3576 39.1632 25.6299C39.2398 26.1459 39.0902 26.499 38.7358 26.8516C35.0984 30.4747 31.4735 34.1098 27.8378 37.7347C27.3984 38.1746 26.9166 38.5721 26.4545 38.9887ZM21.4463 32.0465C25.0598 28.4336 28.6644 24.829 32.2294 21.2646C30.4727 19.5036 28.6877 17.7151 26.9435 15.9667C23.3569 19.5527 19.753 23.1572 16.155 26.7546C17.9118 28.5114 19.6937 30.2927 21.4463 32.0465ZM25.5926 14.651C24.4487 13.4976 23.3013 12.3406 22.1742 11.2045C18.5912 14.7863 14.9908 18.3849 11.4036 21.9709C12.5475 23.1118 13.7015 24.2634 14.8441 25.4025C18.4242 21.8213 22.0305 18.2143 25.5926 14.651ZM26.2187 36.7836C29.8106 33.1934 33.4164 29.59 37.0048 26.004C35.8699 24.8673 34.7189 23.7145 33.5852 22.579C29.9896 26.1746 26.3827 29.7816 22.8056 33.3586C23.9447 34.5012 25.0958 35.6565 26.2187 36.7836ZM15.244 28.4599C14.64 30.5369 14.0289 32.6367 13.3968 34.8101C15.578 34.175 17.6664 33.5669 19.7434 32.9617C18.2386 31.4563 16.75 29.9665 15.244 28.4599ZM28.6698 15.0323C30.18 16.5443 31.6674 18.0335 33.1722 19.5407C33.7803 17.4505 34.3903 15.3568 35.0223 13.1834C32.8472 13.8166 30.754 14.4254 28.6698 15.0323ZM32.0044 12.2346C32.005 12.2125 32.005 12.191 32.0056 12.1688C29.6029 11.8246 27.2003 11.481 24.7641 11.1321C24.7953 11.2141 24.7971 11.2368 24.809 11.2494C25.5614 12.0036 26.312 12.7608 27.074 13.5054C27.1386 13.5688 27.2913 13.5892 27.3877 13.5659C27.7641 13.4737 28.1347 13.3552 28.5076 13.2468C29.673 12.9086 30.8384 12.5716 32.0044 12.2346ZM36.0279 16.1624C35.9842 16.2223 35.9675 16.236 35.9627 16.2534C35.5156 17.7845 35.0666 19.3157 34.6321 20.8504C34.6057 20.9432 34.6698 21.1006 34.7446 21.1766C35.4413 21.8901 36.1494 22.5922 36.8557 23.2967C36.9048 23.3458 36.9653 23.3829 37.0778 23.4709C36.7229 20.9994 36.3787 18.604 36.0279 16.1624ZM11.4545 24.5142C11.4204 24.5363 11.3856 24.5585 11.3515 24.58C11.6969 26.9833 12.0417 29.3865 12.3906 31.8167C12.4295 31.7724 12.4487 31.7604 12.4535 31.7443C12.903 30.2059 13.3543 28.6682 13.7925 27.1263C13.817 27.0401 13.7571 26.8965 13.6889 26.8235C13.3842 26.4954 13.0592 26.186 12.7474 25.8646C12.3134 25.4174 11.8848 24.9649 11.4545 24.5142ZM16.41 35.763C16.4118 35.781 16.413 35.7983 16.4148 35.8163C18.818 36.1617 21.2206 36.5064 23.6239 36.8518C23.5844 36.7177 23.5269 36.6513 23.4647 36.589C22.7877 35.9121 22.1053 35.2405 21.4373 34.5545C21.2907 34.4043 21.165 34.3719 20.9669 34.4324C20.175 34.6724 19.3777 34.8945 18.5828 35.1255C17.8579 35.3368 17.1342 35.5505 16.41 35.763Z" fill="white" />
</svg>
