<svg width="48" height="48" viewBox="0 0 48 48" fill="none" xmlns="http://www.w3.org/2000/svg">
	<rect width="48" height="48" rx="24" fill="currentColor" />
	<path d="M14.4863 29.3619C14.9313 29.8083 15.6559 29.8049 16.0974 29.355C16.5312 28.913 16.5297 28.2044 16.0933 27.7649C16.0682 27.7395 16.043 27.7141 16.0178 27.6888C15.8209 27.4907 15.615 27.3009 15.427 27.095C15.0583 26.691 15.0697 26.1601 15.4438 25.8111C15.7825 25.4951 16.3201 25.5166 16.6828 25.8763C16.7916 25.9842 16.8999 26.0927 17.0076 26.2013C17.6218 26.8206 18.6235 26.8225 19.2378 26.2034C19.717 25.7204 19.8131 24.9918 19.5653 24.3581C19.3246 23.7426 19.1417 23.0957 19.0417 22.4226C18.5096 18.8474 19.5523 15.7827 22.2345 13.3831C25.01 10.8997 28.3057 10.2071 31.8337 11.3426C35.54 12.5355 37.8426 15.1554 38.5627 19.0018C39.4294 23.6329 37.0274 28.0629 32.6926 29.9071C29.9159 31.088 27.1301 30.9611 24.4073 29.6593C24.1894 29.5551 24.0763 29.6 23.9242 29.752C21.3193 32.3654 18.7101 34.9733 16.1028 37.5837C15.5569 38.1307 15.1038 38.1397 14.5621 37.5986C12.7347 35.7736 10.909 33.9474 9.08341 32.1206C8.64227 31.6794 8.65185 31.1766 9.09718 30.7325C9.95852 29.8736 10.8181 29.0134 11.6758 28.1503C12.2606 27.5619 12.6952 27.5601 13.2794 28.1479C13.6803 28.5528 14.0819 28.9562 14.4863 29.3619ZM15.173 35.6613C15.2699 35.7586 15.4311 35.7678 15.5282 35.6707C18.1092 33.0908 20.6908 30.511 23.2706 27.93C23.698 27.5026 24.0685 27.4476 24.5838 27.7546C26.3215 28.7902 28.186 29.1499 30.1858 28.8303C35.2413 28.0216 38.3329 22.5699 36.4336 17.8047C35.0773 14.4019 31.8043 12.3757 28.113 12.6541C24.0822 12.9581 20.8015 16.3699 20.6537 20.409C20.5938 22.0371 20.9697 23.5527 21.8047 24.9534C22.1644 25.5573 22.1303 25.8656 21.6371 26.36C19.7714 28.2305 17.9045 30.0998 16.0357 31.9673C15.5599 32.4432 15.0834 32.4378 14.6016 31.9584C13.9725 31.3323 13.3464 30.7032 12.7185 30.0765C12.6099 29.9679 12.4319 29.9741 12.3224 30.0817C12.1313 30.2692 11.9433 30.4538 11.7585 30.635C11.3152 31.0701 11.311 31.783 11.7493 32.2231C12.8855 33.364 14.025 34.5082 15.173 35.6613Z" fill="white" />
	<path d="M28.8106 26.6772C25.5298 26.6677 22.9075 24.0238 22.9249 20.7437C22.9422 17.4797 25.5783 14.8705 28.8507 14.8789C32.1039 14.8873 34.737 17.5401 34.7262 20.7981C34.7148 24.0579 32.0698 26.6868 28.8106 26.6772ZM32.9622 20.8059C32.9808 18.523 31.1432 16.6477 28.8728 16.6327C26.5707 16.6172 24.6918 18.4541 24.6775 20.7341C24.6625 23.0368 26.4935 24.9049 28.7854 24.9246C31.0827 24.9444 32.9437 23.1092 32.9622 20.8059Z" fill="white" />
</svg>
