<svg width="43" height="43" viewBox="0 0 43 43" fill="none" xmlns="http://www.w3.org/2000/svg">
	<rect width="43" height="43" rx="21.5" fill="white" />
	<path d="M34.8008 21.3854C34.8008 21.5108 34.8008 21.6367 34.8008 21.7621C34.6137 22.2218 34.2673 22.3537 33.7842 22.3704C31.5669 22.4452 29.3733 22.7283 27.2134 23.2477C26.845 23.3365 26.4868 23.4673 26.1131 23.5819C26.3372 24.4878 26.6729 25.2973 27.1759 26.0229C27.5062 26.4987 27.8987 26.9314 28.2655 27.3814C28.5019 27.6715 28.5432 28.0036 28.3732 28.3045C28.2065 28.6 27.8842 28.776 27.5603 28.6877C27.3727 28.6366 27.1829 28.5198 27.0408 28.3836C26.3019 27.6758 25.4723 27.1101 24.5286 26.7204C24.1613 26.5686 23.7784 26.4545 23.387 26.3178C23.3167 26.517 23.2556 26.6655 23.2122 26.8189C22.5435 29.1775 22.2626 31.5947 22.1617 34.0351C22.1419 34.5179 22.0148 34.8683 21.5564 35.0562C21.4314 35.0562 21.3059 35.0562 21.181 35.0562C20.8255 34.892 20.596 34.6536 20.5831 34.2241C20.5129 31.8886 20.2201 29.5812 19.6673 27.3098C19.5879 26.9836 19.4694 26.6677 19.3713 26.3539C18.7353 26.4508 17.6114 26.9137 16.9578 27.3857C16.4881 27.7248 16.0484 28.1064 15.6038 28.4794C15.1223 28.8836 14.451 28.713 14.2901 28.1322C14.1925 27.7802 14.3384 27.5063 14.5786 27.2614C15.2816 26.5444 15.8344 25.7231 16.2194 24.7941C16.3787 24.4098 16.4993 24.0088 16.6436 23.597C16.4441 23.5276 16.2961 23.4673 16.1427 23.4237C13.7931 22.7536 11.3849 22.4699 8.95372 22.3693C8.4722 22.3494 8.12366 22.2213 7.93652 21.7611C7.93652 21.6357 7.93652 21.5097 7.93652 21.3843C8.10007 21.0274 8.33761 20.7971 8.76604 20.7842C11.0927 20.7147 13.3914 20.4176 15.6543 19.8654C15.9792 19.7863 16.294 19.6662 16.6838 19.543C16.421 18.9122 16.2012 18.3169 15.9283 17.7474C15.5845 17.0321 15.0944 16.4147 14.5454 15.8431C14.1389 15.4195 14.177 14.8587 14.6156 14.5675C14.9561 14.3414 15.3454 14.4071 15.7009 14.7564C16.4173 15.4604 17.235 16.0148 18.1594 16.4029C18.5423 16.5633 18.9418 16.6838 19.3514 16.8292C19.4206 16.6289 19.4812 16.4804 19.5246 16.3264C20.1944 13.9587 20.478 11.5329 20.5762 9.08333C20.5955 8.60537 20.7397 8.27382 21.1815 8.0892C21.3065 8.0892 21.432 8.0892 21.5569 8.0892C22.0159 8.27651 22.1693 8.62206 22.1617 9.11025C22.1542 9.64633 22.2073 10.1846 22.255 10.7201C22.4036 12.3903 22.6304 14.0497 23.0283 15.6806C23.1205 16.0584 23.2513 16.4271 23.3859 16.8695C24.0111 16.609 24.5972 16.3953 25.1565 16.1246C25.8772 15.7758 26.5008 15.2801 27.0772 14.723C27.4906 14.3231 28.0333 14.3506 28.3336 14.7709C28.5759 15.11 28.5143 15.518 28.1588 15.8829C27.4311 16.6289 26.867 17.4837 26.4767 18.4498C26.334 18.8029 26.2273 19.1705 26.1077 19.5209C26.1716 19.5618 26.1919 19.5812 26.2166 19.5898C26.3426 19.635 26.4675 19.684 26.5962 19.7206C28.9459 20.3918 31.3541 20.6738 33.7853 20.775C34.2662 20.7971 34.6132 20.9263 34.8008 21.3854ZM21.3832 15.68C21.3671 15.68 21.3505 15.68 21.3344 15.68C21.3027 15.8092 21.2807 15.9416 21.2373 16.0665C21.025 16.6736 20.8368 17.2926 20.581 17.8814C20.3327 18.453 20.0131 18.5854 19.4136 18.4396C18.9547 18.3282 18.5037 18.1855 18.049 18.0569C17.9712 18.0348 17.8935 18.0144 17.8184 17.9939C17.9669 18.5515 18.1187 19.0752 18.2452 19.6054C18.3895 20.2093 18.2586 20.536 17.6956 20.7809C17.1004 21.0398 16.4757 21.2309 15.8623 21.4478C15.7427 21.4903 15.6167 21.5146 15.4939 21.5474C15.6172 21.6362 15.7395 21.6577 15.8548 21.6986C16.4763 21.9188 17.1095 22.112 17.7128 22.3752C18.2538 22.6115 18.3895 22.9447 18.2533 23.5087C18.1396 23.9781 17.9964 24.4399 17.8661 24.9049C17.8442 24.9835 17.8211 25.0621 17.7991 25.1396C18.3557 24.9894 18.8774 24.8366 19.4056 24.7101C20.0249 24.5615 20.33 24.6896 20.588 25.2833C20.84 25.8641 21.025 26.4739 21.2346 27.073C21.2807 27.2048 21.3059 27.3437 21.3413 27.4788C21.432 27.3421 21.4566 27.2022 21.5027 27.0697C21.7124 26.4707 21.8985 25.8609 22.1505 25.2801C22.4063 24.6907 22.713 24.5712 23.3355 24.7074C23.4835 24.7397 23.6331 24.7688 23.779 24.8107C24.1597 24.92 24.5388 25.0357 24.9468 25.1579C24.9157 25.0524 24.8927 24.9781 24.8712 24.9028C24.7382 24.4291 24.5929 23.9582 24.4777 23.4808C24.3543 22.9716 24.4755 22.6788 24.9334 22.4247C25.2439 22.2519 25.5764 22.112 25.9115 21.9936C26.3517 21.8386 26.8043 21.7196 27.3308 21.5608C27.1153 21.507 26.9786 21.4753 26.8424 21.4387C26.1517 21.2535 25.4654 21.0554 24.8492 20.6733C24.5039 20.4591 24.3768 20.1512 24.4583 19.7545C24.4964 19.5704 24.5302 19.3847 24.5811 19.2039C24.6932 18.8045 24.8144 18.4073 24.9399 17.9815C24.8417 18.0117 24.7758 18.0332 24.7093 18.0521C24.2289 18.1877 23.7511 18.3362 23.2663 18.4541C22.7618 18.5774 22.4679 18.452 22.2154 17.9934C22.0481 17.6893 21.9081 17.3653 21.7939 17.0369C21.6373 16.5913 21.5178 16.1332 21.3832 15.68Z" fill="currentColor" />
</svg>
