<svg width="35" height="35" viewBox="0 0 35 35" fill="none" xmlns="http://www.w3.org/2000/svg">
	<path d="M6.9331 21.6911C6.93549 20.567 7.14228 19.4684 7.40256 18.3817C7.6301 17.4324 7.88719 16.4895 8.17222 15.5554C8.57462 14.2388 9.04807 12.9486 9.68839 11.7247C10.0908 10.955 10.7415 10.4704 11.5032 10.1151C12.6369 9.58573 13.8417 9.37175 15.0832 9.3478C15.5104 9.33982 15.8281 9.65918 15.8305 10.0664C15.8329 10.464 15.5263 10.7729 15.1096 10.7913C14.1539 10.8336 13.2213 10.9765 12.3255 11.3374C11.5024 11.6688 10.9108 12.2268 10.5938 13.0532C10.2489 13.9514 9.90157 14.8512 9.60456 15.7662C9.12392 17.2464 8.76942 18.7618 8.50036 20.2947C8.40775 20.8233 8.3814 21.3638 8.32552 21.8987C8.30875 22.0584 8.37502 22.1805 8.50436 22.2732C9.686 23.1203 10.9515 23.7957 12.3726 24.1446C12.7103 24.2276 13.0489 24.234 13.3906 24.1007C13.761 23.9562 14.1571 24.1502 14.296 24.5023C14.4461 24.8823 14.2824 25.2759 13.9064 25.4484C13.2509 25.7478 12.5778 25.6839 11.9127 25.5171C10.2281 25.0947 8.74308 24.27 7.37462 23.2201C7.03689 22.9606 6.96503 22.5813 6.93389 22.1901C6.92272 22.0241 6.9331 21.8572 6.9331 21.6911Z" fill="currentColor" />
	<path d="M27.7269 21.6898C27.6869 22.0115 27.6766 22.3413 27.5959 22.6535C27.5464 22.8467 27.4291 23.0622 27.2758 23.1828C25.8386 24.3102 24.2642 25.1788 22.4622 25.5676C21.8793 25.6938 21.2885 25.7106 20.7217 25.4495C20.3544 25.2802 20.1803 24.9082 20.3089 24.5265C20.4239 24.1848 20.8239 23.9525 21.1808 24.0874C21.7061 24.2862 22.2083 24.188 22.7025 24.0291C23.8682 23.6547 24.942 23.0934 25.9512 22.4004C26.2267 22.2112 26.3512 21.9996 26.2969 21.673C26.1364 20.711 26.0191 19.7393 25.8115 18.7868C25.58 17.7241 25.2877 16.6726 24.9835 15.6275C24.7089 14.6838 24.3752 13.76 23.9496 12.869C23.6494 12.2415 23.2111 11.772 22.5867 11.4742C21.8035 11.0998 20.9724 10.9081 20.1125 10.8299C19.9137 10.8115 19.7149 10.802 19.5153 10.7908C19.0969 10.7676 18.7791 10.4419 18.7903 10.0459C18.8015 9.65625 19.1273 9.3345 19.5392 9.34807C21.0618 9.39677 22.5221 9.68499 23.8322 10.5169C24.3624 10.8539 24.7616 11.3129 25.0163 11.8846C25.3644 12.667 25.7205 13.4479 26.0175 14.2495C26.5332 15.6459 26.942 17.0774 27.2638 18.5321C27.4905 19.5708 27.6877 20.6159 27.7269 21.6898Z" fill="currentColor" />
	<path d="M12.1016 22.8904C11.7822 23.2897 11.4245 23.4078 11.0852 23.2106C10.9399 23.1268 10.8162 22.9942 10.7036 22.8657C10.2764 22.3747 10.0329 21.8014 9.96984 21.1539C9.9427 20.8729 10.0992 20.5886 10.3507 20.4625C10.6565 20.31 10.9447 20.3515 11.2082 20.5631C11.902 21.1204 12.6613 21.5675 13.4804 21.9124C15.0469 22.5727 16.6828 22.7587 18.3651 22.611C20.0377 22.4641 21.5587 21.8964 22.9359 20.9415C23.1052 20.8242 23.2657 20.6948 23.4301 20.5703C23.7215 20.3499 24.0457 20.3156 24.322 20.4912C24.6094 20.6741 24.6788 20.9463 24.6365 21.2713C24.5415 21.9922 24.2261 22.5958 23.7016 23.0948C23.3926 23.3886 22.9 23.3687 22.6477 23.0302C22.5471 22.8952 22.4689 22.9 22.3371 22.9671C21.1587 23.5731 19.9052 23.9388 18.5894 24.0593C16.6692 24.2358 14.7906 24.0569 12.9974 23.2904C12.6972 23.1627 12.4034 23.0254 12.1016 22.8904Z" fill="currentColor" />
	<path d="M23.1763 14.4983C23.031 14.44 22.8737 14.4017 22.7427 14.321C20.8625 13.1609 18.817 12.6883 16.6238 12.8671C14.9104 13.0069 13.304 13.5091 11.811 14.3673C11.4533 14.5733 11.0038 14.4599 10.8018 14.1134C10.6022 13.7717 10.7092 13.3302 11.0621 13.1226C12.3475 12.3681 13.7328 11.8795 15.1922 11.5993C17.0725 11.2376 18.9359 11.2959 20.7755 11.846C21.7607 12.1406 22.6892 12.5661 23.5595 13.1162C23.8749 13.3158 23.9962 13.6288 23.8956 13.9546C23.7966 14.2707 23.5268 14.4655 23.1763 14.4983Z" fill="currentColor" />
	<path d="M20.26 20.174C19.8105 20.1708 19.4576 19.972 19.1742 19.6342C18.676 19.0386 18.6616 18.0766 19.1391 17.465C19.7874 16.6346 20.9331 16.7097 21.4744 17.6183C21.8856 18.3081 21.7674 19.2247 21.195 19.7875C20.9554 20.0231 20.597 20.1708 20.26 20.174Z" fill="currentColor" />
	<path d="M14.4315 20.1821C13.7888 20.1454 13.3824 19.8548 13.1118 19.3582C12.7078 18.618 12.9281 17.6097 13.594 17.1386C14.1209 16.7665 14.8076 16.8057 15.2826 17.2416C16.1728 18.0576 15.9429 19.648 14.8491 20.0759C14.6982 20.135 14.5321 20.1574 14.4315 20.1821Z" fill="currentColor" />
</svg>
