<svg width="599" height="598" viewBox="0 0 599 598" fill="none" xmlns="http://www.w3.org/2000/svg">
	<circle cx="297" cy="296.5" r="255.5" stroke="currentColor" stroke-width="38" />
	<path d="M467.962 487.348C468.901 488.481 469.786 489.507 470.616 490.428C470.911 490.755 471.227 490.942 471.564 490.987C471.894 491.04 472.182 490.956 472.427 490.735C472.672 490.514 472.78 490.215 472.75 489.838C472.726 489.469 472.559 489.081 472.247 488.676C471.753 488.098 471.399 487.69 471.185 487.452C470.73 486.947 470.216 486.407 469.644 485.832L472.307 483.432C473.212 484.555 474.093 485.592 474.95 486.543C475.806 487.494 476.753 488.485 477.79 489.516C477.28 489.936 476.895 490.263 476.635 490.497C476.36 490.745 475.995 491.094 475.539 491.545L473.74 490.198C474.105 490.946 474.232 491.625 474.123 492.236C474.02 492.853 473.727 493.38 473.244 493.815C472.798 494.217 472.322 494.464 471.814 494.558C471.313 494.66 470.83 494.617 470.366 494.43C469.893 494.25 469.47 493.952 469.095 493.536L467.649 491.931C466.759 490.943 466.027 490.169 465.454 489.608L467.962 487.348Z" fill="white" />
	<path d="M463.797 502.532C463.781 502.481 463.748 502.424 463.698 502.362C463.597 502.238 463.465 502.177 463.301 502.181C463.136 502.199 462.96 502.284 462.773 502.435L461.233 503.68L459.564 501.615C460.253 501.148 460.792 500.764 461.179 500.464C460.002 499.024 458.792 497.591 457.549 496.165L460.313 493.93C461.047 494.854 462.213 496.303 463.81 498.278C463.967 498.138 464.231 497.893 464.603 497.541L466.272 499.605L465.444 500.275L465.623 500.496C466.114 501.103 466.407 501.721 466.504 502.35C466.601 502.978 466.52 503.578 466.261 504.148C465.994 504.724 465.576 505.241 465.009 505.7C464.55 506.071 464.034 506.379 463.46 506.625C463.157 505.931 462.737 505.094 462.201 504.113L461.988 503.706C462.278 503.716 462.557 503.671 462.823 503.571C463.089 503.485 463.307 503.373 463.478 503.235C463.618 503.121 463.715 503.004 463.771 502.882C463.827 502.76 463.835 502.643 463.797 502.532Z" fill="white" />
	<path d="M449.395 509.261C450.172 508.765 450.876 508.304 451.506 507.878L450.577 506.588C450.257 506.153 449.913 505.878 449.544 505.765C449.173 505.665 448.745 505.793 448.262 506.148C448.076 506.284 447.911 506.431 447.765 506.587C447.579 506.265 447.373 505.951 447.148 505.645C447.041 505.5 446.79 505.176 446.395 504.672C446.702 504.347 446.971 504.087 447.201 503.893C447.431 503.7 447.739 503.461 448.126 503.177C449.069 502.484 449.903 502.218 450.63 502.379C451.354 502.554 452.015 503.049 452.613 503.863L454.102 505.914C454.469 505.62 454.846 505.306 455.234 504.971L456.806 507.111C456.387 507.419 456.13 507.812 456.035 508.291C455.94 508.771 456.001 509.216 456.217 509.628L452.929 512.044C452.926 511.178 453.049 510.392 453.3 509.687L450.967 511.401L449.395 509.261Z" fill="white" />
	<path d="M434.135 517.658C433.853 517.233 433.503 516.966 433.086 516.857C432.66 516.753 432.191 516.857 431.678 517.169C431.396 517.34 431.175 517.545 431.015 517.782C430.861 518.029 430.754 518.316 430.696 518.644C429.799 518.803 428.8 519.077 427.702 519.464C427.583 518.635 427.75 517.831 428.202 517.053C428.645 516.28 429.4 515.569 430.468 514.92C431.895 514.052 433.153 513.744 434.242 513.994C435.331 514.245 436.205 514.913 436.865 515.998C437.525 517.083 437.716 518.167 437.437 519.249C437.159 520.331 436.307 521.306 434.88 522.174C433.812 522.823 432.833 523.167 431.943 523.205C431.044 523.248 430.254 523.026 429.572 522.54C430.234 521.915 430.936 521.155 431.678 520.258C431.996 520.358 432.297 520.391 432.582 520.359C432.872 520.334 433.157 520.237 433.439 520.065C433.952 519.754 434.26 519.385 434.364 518.959C434.459 518.538 434.383 518.105 434.135 517.658Z" fill="white" />
	<path d="M417.894 522.059C419.404 521.258 420.7 521.012 421.781 521.322C422.858 521.645 423.696 522.372 424.296 523.503C424.882 524.607 425.004 525.692 424.662 526.755C424.312 527.824 423.382 528.759 421.871 529.56C420.855 530.099 419.918 530.381 419.06 530.406C418.197 530.444 417.453 530.267 416.826 529.875C416.204 529.492 415.708 528.951 415.338 528.253C414.733 527.114 414.628 525.998 415.023 524.906C415.408 523.819 416.365 522.87 417.894 522.059ZM419.035 524.34C418.461 524.645 418.105 525.009 417.968 525.433C417.83 525.856 417.883 526.298 418.127 526.757C418.356 527.19 418.685 527.469 419.113 527.593C419.546 527.726 420.049 527.64 420.623 527.335C421.198 527.031 421.545 526.671 421.664 526.257C421.784 525.842 421.727 525.414 421.493 524.973C421.249 524.513 420.922 524.217 420.512 524.083C420.102 523.95 419.609 524.036 419.035 524.34Z" fill="white" />
	<path d="M407.941 533.859C407.695 533.311 407.308 532.477 406.781 531.355C406.147 530.006 405.678 529.033 405.375 528.435L408.579 526.929L409.286 528.469C410.059 530.161 410.661 531.464 411.091 532.378C411.499 533.247 412.087 534.473 412.854 536.058L413.556 537.517L410.353 539.024C409.767 537.73 409.282 536.676 408.899 535.861C408.474 534.956 408.155 534.289 407.941 533.859Z" fill="white" />
	<path d="M399.507 537.569C399.28 537.014 398.923 536.166 398.436 535.025C397.851 533.655 397.417 532.666 397.135 532.058L400.391 530.667L401.043 532.231C401.755 533.95 402.31 535.273 402.707 536.202C403.084 537.085 403.628 538.331 404.338 539.942L404.988 541.426L401.733 542.817C401.193 541.503 400.746 540.432 400.393 539.605C400 538.685 399.705 538.007 399.507 537.569Z" fill="white" />
	<path d="M253.701 547.439C253.38 548.875 253.11 550.203 252.889 551.423C252.811 551.856 252.857 552.22 253.027 552.515C253.187 552.808 253.43 552.984 253.755 553.043C254.079 553.101 254.382 553.004 254.661 552.749C254.939 552.505 255.143 552.135 255.273 551.641C255.428 550.896 255.534 550.367 255.591 550.052C255.712 549.383 255.825 548.646 255.93 547.842L259.457 548.479C259.123 549.882 258.841 551.213 258.613 552.473C258.386 553.733 258.181 555.088 258 556.539C257.356 556.392 256.862 556.287 256.518 556.225C256.153 556.159 255.654 556.084 255.019 556L254.983 553.753C254.614 554.499 254.155 555.015 253.605 555.302C253.054 555.599 252.458 555.689 251.818 555.574C251.228 555.467 250.74 555.242 250.355 554.898C249.969 554.563 249.707 554.155 249.571 553.673C249.424 553.19 249.401 552.672 249.501 552.121L249.885 549.996C250.122 548.687 250.286 547.634 250.38 546.838L253.701 547.439Z" fill="white" />
	<path d="M239.142 553.437C239.173 553.393 239.198 553.332 239.217 553.254C239.253 553.098 239.22 552.957 239.117 552.829C239.001 552.71 238.827 552.622 238.593 552.567L236.666 552.111L237.277 549.527C238.069 549.786 238.702 549.977 239.177 550.1C239.595 548.288 239.988 546.454 240.355 544.598L243.814 545.417C243.533 546.563 243.1 548.372 242.515 550.844C242.722 550.882 243.078 550.941 243.583 551.019L242.972 553.603L241.936 553.358L241.87 553.635C241.69 554.394 241.382 555.004 240.944 555.466C240.506 555.927 239.982 556.23 239.372 556.374C238.753 556.515 238.089 556.501 237.378 556.333C236.804 556.197 236.245 555.978 235.7 555.674C236.063 555.01 236.468 554.165 236.916 553.141L237.107 552.724C237.277 552.959 237.483 553.152 237.725 553.302C237.955 553.459 238.177 553.563 238.392 553.614C238.567 553.655 238.72 553.66 238.85 553.63C238.981 553.599 239.078 553.535 239.142 553.437Z" fill="white" />
	<path d="M225.009 546.162C225.877 546.473 226.673 546.747 227.395 546.985L227.847 545.46C227.995 544.941 228.002 544.501 227.866 544.14C227.718 543.785 227.355 543.525 226.778 543.36C226.557 543.297 226.34 543.256 226.127 543.237C226.267 542.892 226.39 542.537 226.494 542.171C226.544 541.998 226.647 541.601 226.804 540.981C227.249 541.025 227.618 541.078 227.912 541.142C228.206 541.205 228.584 541.303 229.045 541.435C230.17 541.757 230.891 542.254 231.208 542.927C231.513 543.607 231.526 544.433 231.249 545.404L230.537 547.837C230.994 547.947 231.474 548.053 231.975 548.155L231.245 550.707C230.745 550.564 230.276 550.602 229.839 550.82C229.402 551.038 229.087 551.359 228.893 551.782L224.971 550.66C225.654 550.127 226.351 549.744 227.062 549.511L224.279 548.715L225.009 546.162Z" fill="white" />
	<path d="M209.029 539.232C209.193 538.748 209.191 538.308 209.021 537.911C208.843 537.511 208.473 537.203 207.913 536.989C207.605 536.871 207.308 536.821 207.022 536.84C206.733 536.868 206.441 536.96 206.146 537.115C205.47 536.502 204.643 535.88 203.665 535.248C204.248 534.647 204.986 534.287 205.878 534.168C206.76 534.046 207.784 534.208 208.952 534.656C210.511 535.253 211.525 536.059 211.993 537.074C212.461 538.089 212.467 539.189 212.013 540.375C211.558 541.561 210.818 542.375 209.792 542.817C208.766 543.259 207.473 543.181 205.914 542.584C204.746 542.136 203.875 541.572 203.301 540.892C202.717 540.207 202.409 539.447 202.376 538.61C203.275 538.751 204.307 538.841 205.47 538.879C205.586 539.192 205.744 539.45 205.943 539.655C206.14 539.87 206.392 540.036 206.7 540.154C207.26 540.369 207.741 540.387 208.141 540.208C208.532 540.026 208.828 539.701 209.029 539.232Z" fill="white" />
	<path d="M195.61 529.077C197.169 529.782 198.156 530.656 198.572 531.701C198.976 532.75 198.914 533.858 198.386 535.024C197.871 536.163 197.088 536.923 196.038 537.304C194.979 537.681 193.67 537.517 192.112 536.813C191.064 536.339 190.268 535.77 189.723 535.106C189.164 534.448 188.849 533.751 188.775 533.015C188.698 532.289 188.822 531.566 189.147 530.846C189.679 529.67 190.497 528.905 191.602 528.548C192.698 528.188 194.034 528.364 195.61 529.077ZM194.505 531.376C193.913 531.108 193.407 531.049 192.988 531.2C192.568 531.35 192.251 531.663 192.037 532.136C191.835 532.583 191.816 533.013 191.98 533.428C192.14 533.851 192.516 534.197 193.108 534.465C193.7 534.732 194.197 534.787 194.598 534.628C194.999 534.469 195.303 534.162 195.509 533.707C195.723 533.233 195.757 532.793 195.612 532.387C195.466 531.981 195.097 531.644 194.505 531.376Z" fill="white" />
	<path d="M180.188 528.426C180.47 527.896 180.893 527.079 181.458 525.975C182.137 524.649 182.62 523.683 182.907 523.077L186.058 524.69L185.273 526.192C184.408 527.839 183.746 529.112 183.286 530.011C182.848 530.865 182.238 532.081 181.454 533.657L180.73 535.106L177.578 533.493C178.243 532.238 178.78 531.21 179.19 530.409C179.645 529.519 179.978 528.858 180.188 528.426Z" fill="white" />
	<path d="M172.092 524.025C172.392 523.506 172.845 522.705 173.448 521.622C174.174 520.32 174.691 519.372 175 518.777L178.092 520.501L177.253 521.974C176.33 523.589 175.623 524.837 175.131 525.72C174.664 526.558 174.01 527.751 173.171 529.298L172.395 530.72L169.303 528.997C170.012 527.766 170.586 526.758 171.024 525.972C171.511 525.098 171.867 524.449 172.092 524.025Z" fill="white" />
	<path d="M161.574 515.08L165.726 517.663C165.891 517.247 165.915 516.839 165.8 516.437C165.671 516.039 165.36 515.686 164.868 515.38C164.511 515.158 164.133 515.017 163.735 514.958C163.331 514.907 162.956 514.95 162.611 515.089C162.216 514.455 161.648 513.683 160.907 512.774C161.54 512.343 162.315 512.166 163.233 512.243C164.138 512.323 165.146 512.709 166.258 513.401C167.702 514.299 168.565 515.296 168.849 516.391C169.12 517.49 168.917 518.583 168.241 519.669C167.58 520.731 166.7 521.379 165.6 521.613C164.5 521.847 163.225 521.513 161.773 520.609C160.907 520.07 160.245 519.458 159.788 518.774C159.331 518.089 159.094 517.382 159.076 516.652C159.054 515.932 159.248 515.24 159.66 514.578C159.798 514.357 159.909 514.197 159.995 514.097L161.574 515.08ZM162.791 518.575C163.216 518.839 163.614 518.975 163.986 518.983C164.358 518.991 164.687 518.889 164.971 518.677L161.966 516.807C161.898 517.142 161.929 517.462 162.058 517.766C162.182 518.078 162.426 518.348 162.791 518.575Z" fill="white" />
	<path d="M152.539 509.436C152.818 509.008 152.924 508.581 152.858 508.154C152.783 507.722 152.501 507.333 152.012 506.987C151.742 506.796 151.467 506.675 151.185 506.623C150.898 506.579 150.592 506.595 150.268 506.673C149.764 505.912 149.117 505.105 148.324 504.251C149.038 503.813 149.842 503.646 150.735 503.751C151.62 503.851 152.573 504.261 153.594 504.983C154.957 505.947 155.741 506.978 155.944 508.077C156.147 509.176 155.881 510.243 155.148 511.28C154.415 512.317 153.497 512.923 152.393 513.098C151.29 513.274 150.056 512.879 148.693 511.915C147.672 511.193 146.967 510.432 146.579 509.63C146.182 508.823 146.071 508.01 146.246 507.191C147.082 507.549 148.059 507.891 149.177 508.216C149.212 508.547 149.301 508.837 149.444 509.085C149.582 509.341 149.785 509.564 150.054 509.755C150.544 510.101 151.005 510.237 151.437 510.163C151.861 510.083 152.229 509.841 152.539 509.436Z" fill="white" />
	<path d="M136.976 499.501C137.662 500.117 138.294 500.672 138.873 501.166L139.868 499.926C140.202 499.502 140.375 499.097 140.386 498.711C140.383 498.327 140.146 497.949 139.674 497.578C139.494 497.436 139.309 497.315 139.119 497.217C139.379 496.951 139.627 496.669 139.862 496.37C139.973 496.229 140.219 495.9 140.599 495.385C140.995 495.595 141.316 495.784 141.564 495.954C141.812 496.124 142.125 496.357 142.502 496.654C143.421 497.378 143.9 498.112 143.938 498.855C143.963 499.6 143.663 500.369 143.038 501.162L141.458 503.145C141.839 503.42 142.243 503.699 142.668 503.983L141.025 506.069C140.617 505.748 140.169 505.605 139.682 505.641C139.195 505.678 138.782 505.855 138.442 506.173L135.237 503.649C136.071 503.415 136.861 503.324 137.608 503.378L135.334 501.587L136.976 499.501Z" fill="white" />
	<path d="M129.174 497.604C129.652 498.014 129.909 498.437 129.942 498.874C129.969 499.305 129.819 499.71 129.494 500.09C129.175 500.462 128.798 500.672 128.362 500.72C127.918 500.761 127.457 500.577 126.979 500.167C126.523 499.777 126.281 499.353 126.252 498.894C126.217 498.443 126.356 498.035 126.668 497.67C126.993 497.29 127.375 497.084 127.812 497.05C128.249 497.016 128.703 497.201 129.174 497.604ZM136.398 491.842C135.297 493.019 134.406 494.007 133.723 494.805C132.91 495.754 132.03 496.844 131.082 498.073L128.348 495.732C129.378 494.652 130.319 493.614 131.171 492.619C131.886 491.784 132.724 490.751 133.686 489.52L136.398 491.842Z" fill="white" />
	<path d="M126.423 482.722C127.667 483.895 128.316 485.044 128.37 486.167C128.41 487.29 127.991 488.318 127.113 489.249C126.255 490.158 125.268 490.622 124.151 490.641C123.026 490.652 121.842 490.071 120.598 488.898C119.761 488.109 119.193 487.312 118.894 486.507C118.58 485.703 118.509 484.941 118.679 484.222C118.842 483.509 119.194 482.866 119.736 482.291C120.622 481.353 121.645 480.895 122.805 480.918C123.959 480.933 125.165 481.535 126.423 482.722ZM124.63 484.536C124.157 484.09 123.698 483.87 123.253 483.876C122.807 483.882 122.406 484.074 122.049 484.452C121.713 484.808 121.555 485.209 121.575 485.654C121.588 486.107 121.831 486.556 122.304 487.002C122.777 487.448 123.229 487.661 123.66 487.641C124.091 487.622 124.478 487.43 124.821 487.066C125.178 486.688 125.353 486.283 125.348 485.852C125.342 485.42 125.103 484.982 124.63 484.536Z" fill="white" />
	<path d="M114.814 471.258C113.701 472.221 112.693 473.126 111.789 473.975C111.468 474.276 111.288 474.596 111.249 474.935C111.204 475.266 111.294 475.551 111.52 475.792C111.746 476.033 112.047 476.134 112.423 476.096C112.792 476.065 113.176 475.89 113.575 475.57C114.142 475.064 114.543 474.702 114.776 474.483C115.272 474.017 115.801 473.493 116.364 472.909L118.818 475.522C117.714 476.45 116.695 477.352 115.762 478.228C114.829 479.104 113.858 480.071 112.848 481.129C112.418 480.627 112.084 480.249 111.844 479.994C111.591 479.724 111.234 479.366 110.774 478.92L112.084 477.094C111.343 477.474 110.667 477.615 110.054 477.518C109.434 477.428 108.902 477.146 108.457 476.672C108.046 476.235 107.789 475.763 107.684 475.258C107.573 474.759 107.606 474.275 107.783 473.807C107.954 473.331 108.243 472.902 108.651 472.518L110.226 471.04C111.195 470.129 111.954 469.382 112.503 468.798L114.814 471.258Z" fill="white" />
	<path d="M75.0657 414.744C73.7338 415.369 72.5179 415.967 71.4178 416.54C71.0274 416.743 70.7676 417.002 70.6385 417.317C70.5047 417.623 70.514 417.923 70.6663 418.216C70.8185 418.508 71.0808 418.687 71.4531 418.753C71.8165 418.823 72.2337 418.759 72.7046 418.559C73.3881 418.226 73.8717 417.985 74.1556 417.838C74.7589 417.524 75.4106 417.163 76.1108 416.753L77.765 419.934C76.4506 420.527 75.2256 421.119 74.09 421.71C72.9544 422.301 71.7574 422.968 70.499 423.713C70.2211 423.114 70.0014 422.659 69.8399 422.348C69.6692 422.02 69.4228 421.579 69.1009 421.025L70.8564 419.621C70.0405 419.786 69.351 419.739 68.7878 419.48C68.2157 419.225 67.7797 418.809 67.4797 418.233C67.2029 417.701 67.0827 417.177 67.1192 416.662C67.1468 416.152 67.3095 415.695 67.6072 415.292C67.9003 414.881 68.2953 414.545 68.7921 414.287L70.7084 413.29C71.8884 412.677 72.8217 412.163 73.5083 411.75L75.0657 414.744Z" fill="white" />
	<path d="M61.4139 406.898C61.4677 406.895 61.531 406.878 61.6038 406.845C61.7495 406.779 61.841 406.666 61.8783 406.506C61.9024 406.341 61.8649 406.15 61.7656 405.931L60.9472 404.128L63.3647 403.031C63.6441 403.815 63.8805 404.433 64.0739 404.883C65.7634 404.105 67.4542 403.294 69.1462 402.449L70.6158 405.686C69.5372 406.164 67.8414 406.929 65.5286 407.979C65.6245 408.166 65.7961 408.483 66.0433 408.931L63.6258 410.029L63.1856 409.059L62.926 409.177C62.2158 409.499 61.5441 409.628 60.9111 409.564C60.278 409.5 59.7182 409.271 59.2318 408.877C58.7412 408.474 58.345 407.94 58.0433 407.275C57.7994 406.738 57.6308 406.161 57.5376 405.544C58.285 405.425 59.2008 405.228 60.2851 404.956L60.7321 404.852C60.65 405.131 60.6238 405.412 60.6535 405.695C60.6699 405.973 60.7236 406.212 60.8145 406.412C60.8889 406.576 60.9782 406.7 61.0825 406.785C61.1867 406.869 61.2972 406.907 61.4139 406.898Z" fill="white" />
	<path d="M58.5193 391.269C58.8046 392.145 59.0743 392.942 59.3282 393.659L60.8104 393.083C61.312 392.883 61.664 392.619 61.8667 392.29C62.0563 391.956 62.0399 391.511 61.8174 390.953C61.7322 390.74 61.632 390.543 61.517 390.363C61.8755 390.263 62.2312 390.142 62.5841 390.001C62.7513 389.935 63.1283 389.773 63.7153 389.517C63.9527 389.896 64.1364 390.221 64.2662 390.493C64.396 390.764 64.5498 391.122 64.7278 391.568C65.1616 392.655 65.2093 393.529 64.8708 394.192C64.5194 394.849 63.8747 395.365 62.9367 395.739L60.5768 396.665C60.7696 397.094 60.9791 397.538 61.2054 397.997L58.7396 398.982C58.5468 398.499 58.2304 398.151 57.7905 397.939C57.3505 397.727 56.904 397.674 56.4508 397.78L54.9381 393.99C55.7773 394.204 56.5069 394.522 57.1268 394.942L56.0535 392.253L58.5193 391.269Z" fill="white" />
	<path d="M54.2232 374.389C54.7057 374.223 55.0522 373.952 55.2625 373.575C55.47 373.189 55.4872 372.709 55.3142 372.134C55.219 371.818 55.0765 371.553 54.8866 371.339C54.6872 371.127 54.436 370.952 54.1332 370.813C54.2041 369.904 54.1901 368.869 54.0912 367.709C54.9236 367.803 55.6596 368.166 56.2991 368.798C56.9358 369.421 57.4343 370.331 57.7948 371.528C58.2763 373.127 58.259 374.422 57.7428 375.413C57.2266 376.404 56.3605 377.082 55.1445 377.449C53.9284 377.815 52.8316 377.727 51.854 377.186C50.8765 376.645 50.1469 375.575 49.6654 373.976C49.3049 372.779 49.2181 371.745 49.405 370.874C49.5889 369.994 50.0019 369.285 50.6441 368.747C51.0826 369.544 51.6424 370.415 52.3235 371.358C52.1475 371.641 52.0396 371.924 51.9997 372.208C51.9502 372.494 51.973 372.796 52.0681 373.112C52.2412 373.686 52.5208 374.077 52.907 374.284C53.2903 374.482 53.7291 374.517 54.2232 374.389Z" fill="white" />
	<path d="M54.0422 357.562C54.4382 359.226 54.3506 360.542 53.7794 361.511C53.1962 362.472 52.2819 363.101 51.0367 363.397C49.8207 363.686 48.7407 363.532 47.7966 362.935C46.8502 362.327 46.179 361.192 45.783 359.528C45.5167 358.41 45.4792 357.432 45.6706 356.595C45.8499 355.75 46.208 355.074 46.7449 354.566C47.2721 354.06 47.92 353.716 48.6885 353.533C49.9434 353.234 51.0499 353.413 52.0078 354.068C52.9635 354.715 53.6416 355.879 54.0422 357.562ZM51.5477 358.094C51.3971 357.462 51.134 357.026 50.7583 356.787C50.3827 356.547 49.9419 356.488 49.436 356.608C48.9593 356.722 48.6073 356.97 48.3798 357.353C48.1426 357.738 48.0993 358.247 48.2498 358.88C48.4003 359.512 48.6611 359.938 49.0322 360.158C49.4032 360.378 49.832 360.43 50.3184 360.315C50.8242 360.194 51.1932 359.952 51.4253 359.588C51.6574 359.225 51.6982 358.727 51.5477 358.094Z" fill="white" />
	<path d="M45.1205 344.964C45.712 344.863 46.6172 344.698 47.8359 344.469C49.3003 344.194 50.3599 343.985 51.0147 343.842L51.6679 347.321L49.9993 347.619C48.1675 347.943 46.7553 348.198 45.7627 348.384C44.8192 348.561 43.4844 348.822 41.7583 349.167L40.1689 349.48L39.5156 346.001C40.9149 345.759 42.0569 345.554 42.9414 345.388C43.9242 345.204 44.6506 345.062 45.1205 344.964Z" fill="white" />
	<path d="M43.6465 335.869C44.2413 335.79 45.1517 335.657 46.3778 335.472C47.8511 335.249 48.9175 335.078 49.577 334.958L50.1058 338.458L48.4276 338.697C46.5855 338.955 45.1651 339.159 44.1664 339.31C43.2172 339.454 41.874 339.667 40.1367 339.949L38.5371 340.206L38.0083 336.706C39.4153 336.514 40.5638 336.35 41.4537 336.216C42.4425 336.066 43.1734 335.951 43.6465 335.869Z" fill="white" />
	<path d="M44.2871 322.076L44.7843 326.941C45.2139 326.817 45.5522 326.586 45.7992 326.249C46.0353 325.903 46.1238 325.442 46.0649 324.865C46.0222 324.447 45.9024 324.062 45.7056 323.711C45.4989 323.36 45.2351 323.09 44.9143 322.902C45.1745 322.202 45.4371 321.28 45.7023 320.137C46.4302 320.375 47.0448 320.88 47.5459 321.653C48.0362 322.417 48.3479 323.451 48.4811 324.754C48.6539 326.445 48.394 327.738 47.7014 328.633C46.9979 329.519 46.0094 330.027 44.7361 330.158C43.4925 330.285 42.4416 329.985 41.5833 329.258C40.725 328.532 40.2089 327.318 40.0351 325.617C39.9314 324.602 40.0105 323.705 40.2725 322.924C40.5345 322.143 40.9486 321.523 41.5147 321.063C42.0709 320.604 42.737 320.335 43.513 320.256C43.7717 320.229 43.9667 320.219 44.098 320.226L44.2871 322.076ZM42.267 325.178C42.3178 325.675 42.454 326.073 42.6755 326.372C42.8971 326.671 43.1786 326.869 43.5201 326.965L43.1602 323.443C42.8541 323.595 42.6202 323.815 42.4587 324.103C42.2872 324.392 42.2233 324.75 42.267 325.178Z" fill="white" />
	<path d="M43.2222 311.477C43.7309 311.435 44.1336 311.258 44.4304 310.945C44.7268 310.621 44.8621 310.16 44.8363 309.561C44.8221 309.231 44.7494 308.939 44.6184 308.684C44.4773 308.43 44.2771 308.199 44.0179 307.99C44.311 307.126 44.5529 306.12 44.7437 304.971C45.5272 305.267 46.1507 305.801 46.6143 306.572C47.0775 307.332 47.3359 308.337 47.3897 309.586C47.4616 311.254 47.1251 312.505 46.3802 313.338C45.6354 314.171 44.6285 314.614 43.3597 314.669C42.0909 314.724 41.0496 314.368 40.2359 313.602C39.4222 312.837 38.9794 311.62 38.9076 309.951C38.8538 308.702 39.0249 307.679 39.421 306.881C39.8166 306.074 40.3919 305.488 41.147 305.125C41.3751 306.006 41.7027 306.988 42.1296 308.071C41.8893 308.301 41.7148 308.549 41.6061 308.814C41.4875 309.079 41.4352 309.377 41.4494 309.707C41.4752 310.306 41.6497 310.754 41.9727 311.05C42.2953 311.337 42.7118 311.479 43.2222 311.477Z" fill="white" />
	<path d="M41.5575 293.088C41.4895 294.008 41.4373 294.847 41.4007 295.607L42.9905 295.636C43.5305 295.64 43.9565 295.529 44.2685 295.302C44.5705 295.064 44.7241 294.646 44.7293 294.046C44.7313 293.816 44.7132 293.595 44.675 293.385C45.0447 293.428 45.4195 293.452 45.7995 293.455C45.9794 293.456 46.3895 293.45 47.0297 293.435C47.1059 293.876 47.1527 294.247 47.1701 294.547C47.1875 294.847 47.1941 295.237 47.19 295.717C47.1799 296.887 46.8927 297.714 46.3285 298.2C45.7544 298.675 44.9623 298.908 43.9524 298.899L41.4176 298.862C41.4335 299.332 41.4593 299.823 41.4949 300.333L38.84 300.31C38.8445 299.79 38.6833 299.349 38.3564 298.986C38.0295 298.623 37.6364 298.405 37.177 298.331L37.2123 294.251C37.9078 294.767 38.4629 295.337 38.8776 295.96L38.9026 293.065L41.5575 293.088Z" fill="white" />
	<path d="M38.2839 285.756C38.2526 286.386 38.0745 286.847 37.7495 287.142C37.425 287.426 37.0131 287.556 36.5137 287.531C36.0243 287.507 35.6272 287.337 35.3225 287.021C35.0183 286.696 34.8818 286.218 34.913 285.589C34.9428 284.99 35.1304 284.539 35.4759 284.235C35.8113 283.932 36.2188 283.792 36.6982 283.815C37.1976 283.84 37.5944 284.015 37.8886 284.34C38.1829 284.665 38.3146 285.137 38.2839 285.756ZM47.2614 287.944C45.6569 287.795 44.3302 287.694 43.2815 287.642C42.0331 287.58 40.6328 287.55 39.0807 287.553L39.2593 283.958C40.7435 284.111 42.1398 284.221 43.4482 284.286C44.5468 284.34 45.8769 284.371 47.4385 284.379L47.2614 287.944Z" fill="white" />
	<path d="M48.3706 274.474C48.2038 276.176 47.6927 277.392 46.8374 278.122C45.9731 278.841 44.904 279.138 43.6301 279.013C42.3861 278.891 41.4149 278.394 40.7167 277.522C40.0195 276.64 39.7543 275.348 39.9211 273.646C40.0333 272.501 40.3161 271.564 40.7694 270.835C41.2138 270.095 41.7725 269.572 42.4455 269.266C43.1086 268.959 43.8333 268.845 44.6195 268.922C45.9033 269.048 46.8914 269.577 47.5838 270.509C48.2771 271.431 48.5394 272.752 48.3706 274.474ZM45.8386 274.166C45.9021 273.519 45.7951 273.021 45.5178 272.672C45.2405 272.324 44.8431 272.124 44.3256 272.073C43.8379 272.025 43.4242 272.145 43.0845 272.434C42.7348 272.721 42.5282 273.188 42.4648 273.835C42.4014 274.482 42.5093 274.97 42.7886 275.299C43.0678 275.627 43.4562 275.816 43.9539 275.865C44.4714 275.916 44.899 275.807 45.2368 275.539C45.5746 275.27 45.7752 274.813 45.8386 274.166Z" fill="white" />
	<path d="M50.3331 258.276C48.8909 257.985 47.5576 257.742 46.3331 257.546C45.8986 257.477 45.5356 257.531 45.2442 257.707C44.9544 257.873 44.7834 258.119 44.7314 258.445C44.6794 258.771 44.7833 259.071 45.0433 259.346C45.2934 259.618 45.6672 259.815 46.1645 259.935C46.9118 260.074 47.4435 260.169 47.7595 260.22C48.431 260.327 49.1698 260.425 49.976 260.513L49.4108 264.053C48.0014 263.747 46.6648 263.493 45.4008 263.291C44.1368 263.089 42.7776 262.913 41.3232 262.762C41.4569 262.115 41.5513 261.618 41.6065 261.273C41.6648 260.907 41.7296 260.406 41.8009 259.77L44.0469 259.688C43.2932 259.335 42.7673 258.886 42.4693 258.342C42.1614 257.797 42.0587 257.203 42.1612 256.561C42.2558 255.969 42.4711 255.477 42.8071 255.085C43.1332 254.691 43.5358 254.421 44.0148 254.275C44.4955 254.119 45.0123 254.085 45.5653 254.173L47.6983 254.514C49.0117 254.723 50.0673 254.867 50.8652 254.943L50.3331 258.276Z" fill="white" />
	<path d="M70.7116 192.256C69.4022 191.586 68.1847 190.99 67.059 190.47C66.6595 190.286 66.2957 190.239 65.9674 190.329C65.6433 190.411 65.412 190.602 65.2737 190.901C65.1353 191.201 65.154 191.518 65.3299 191.852C65.4967 192.183 65.8033 192.473 66.2495 192.723C66.931 193.06 67.4171 193.296 67.7076 193.43C68.3249 193.715 69.0096 194.009 69.7617 194.313L68.2584 197.567C66.9847 196.891 65.7668 196.284 64.6048 195.747C63.4428 195.211 62.1823 194.672 60.8233 194.133C61.1273 193.546 61.3527 193.094 61.4994 192.776C61.6546 192.44 61.8528 191.976 62.0939 191.382L64.2781 191.912C63.6483 191.368 63.2636 190.793 63.1241 190.189C62.9755 189.581 63.0375 188.982 63.3101 188.391C63.5617 187.847 63.9023 187.431 64.332 187.145C64.7525 186.855 65.2132 186.704 65.7139 186.693C66.2189 186.673 66.7256 186.78 67.234 187.015L69.1949 187.921C70.4023 188.479 71.3796 188.902 72.1268 189.193L70.7116 192.256Z" fill="white" />
	<path d="M68.5622 176.659C68.597 176.7 68.6498 176.739 68.7206 176.776C68.862 176.851 69.0073 176.854 69.1565 176.786C69.3015 176.704 69.43 176.557 69.5422 176.345L70.4673 174.595L72.8147 175.835C72.365 176.536 72.0212 177.101 71.7834 177.53C73.4326 178.39 75.109 179.231 76.8127 180.052L75.1516 183.195C74.113 182.635 72.4709 181.761 70.2252 180.574C70.1359 180.765 69.9898 181.095 69.7869 181.564L67.4395 180.324L67.9372 179.382L67.6852 179.249C66.9956 178.885 66.4824 178.432 66.1456 177.893C65.8089 177.353 65.6476 176.77 65.6617 176.144C65.6805 175.509 65.8604 174.869 66.2015 174.223C66.4772 173.702 66.8303 173.215 67.261 172.764C67.813 173.282 68.5285 173.887 69.4076 174.578L69.7634 174.867C69.4926 174.973 69.2543 175.124 69.0486 175.321C68.8387 175.504 68.6824 175.693 68.5796 175.887C68.4955 176.047 68.4519 176.193 68.4489 176.327C68.4458 176.461 68.4836 176.572 68.5622 176.659Z" fill="white" />
	<path d="M79.1533 164.805C78.6345 165.567 78.1693 166.268 77.7576 166.908L79.1198 167.728C79.585 168.002 80.0096 168.119 80.3934 168.078C80.7737 168.023 81.1162 167.738 81.4208 167.221C81.5376 167.023 81.632 166.823 81.7042 166.622C82.0027 166.844 82.3156 167.052 82.643 167.245C82.798 167.336 83.1563 167.536 83.7179 167.843C83.5634 168.263 83.4186 168.607 83.2836 168.876C83.1485 169.144 82.9591 169.485 82.7154 169.899C82.1214 170.907 81.4588 171.48 80.7276 171.618C79.9928 171.742 79.1903 171.548 78.3202 171.035L76.1438 169.735C75.9224 170.15 75.6995 170.587 75.475 171.047L73.1876 169.699C73.4516 169.251 73.5329 168.788 73.4313 168.31C73.3298 167.833 73.0987 167.447 72.7379 167.153L74.8093 163.638C75.1534 164.433 75.349 165.204 75.3961 165.951L76.8659 163.457L79.1533 164.805Z" fill="white" />
	<path d="M89.8749 151.08C90.3016 151.36 90.7283 151.468 91.1549 151.404C91.5873 151.332 91.9778 151.051 92.3263 150.563C92.518 150.294 92.6405 150.019 92.6939 149.738C92.7391 149.451 92.7238 149.145 92.6481 148.821C93.4105 148.321 94.2205 147.676 95.078 146.888C95.5131 147.604 95.6762 148.408 95.5673 149.301C95.4642 150.185 95.0496 151.137 94.3235 152.154C93.3534 153.513 92.3186 154.292 91.219 154.49C90.1194 154.688 89.0527 154.418 88.0189 153.681C86.9852 152.943 86.3832 152.022 86.213 150.918C86.0428 149.813 86.4427 148.582 87.4128 147.222C88.1389 146.205 88.9035 145.503 89.7066 145.118C90.5156 144.725 91.3293 144.618 92.1477 144.796C91.7854 145.631 91.4394 146.607 91.1097 147.723C90.7784 147.757 90.4884 147.845 90.2397 147.987C89.9829 148.123 89.7586 148.325 89.5669 148.594C89.2184 149.082 89.0802 149.542 89.1525 149.975C89.2305 150.399 89.4713 150.768 89.8749 151.08Z" fill="white" />
	<path d="M103.073 140.639C102 141.97 100.905 142.706 99.7894 142.847C98.6723 142.974 97.6155 142.636 96.6191 141.832C95.6461 141.048 95.107 140.099 95.002 138.987C94.9033 137.867 95.3907 136.641 96.4641 135.31C97.1859 134.415 97.9365 133.787 98.7156 133.426C99.4933 133.051 100.247 132.92 100.978 133.034C101.7 133.141 102.369 133.443 102.984 133.939C103.988 134.749 104.524 135.733 104.592 136.892C104.665 138.044 104.159 139.293 103.073 140.639ZM101.126 138.992C101.534 138.486 101.717 138.011 101.677 137.567C101.637 137.124 101.414 136.739 101.009 136.412C100.628 136.105 100.216 135.978 99.7737 136.033C99.3238 136.081 98.8948 136.358 98.4867 136.864C98.0787 137.37 97.9012 137.837 97.9542 138.265C98.0072 138.693 98.2283 139.064 98.6175 139.378C99.0223 139.704 99.4395 139.848 99.8692 139.809C100.299 139.77 100.718 139.498 101.126 138.992Z" fill="white" />
	<path d="M107.577 125.875C108.019 126.281 108.703 126.896 109.63 127.72C110.744 128.71 111.557 129.42 112.071 129.85L109.719 132.496L108.462 131.358C107.086 130.108 106.02 129.147 105.265 128.476C104.548 127.838 103.525 126.942 102.196 125.787L100.975 124.722L103.327 122.076C104.375 123.035 105.236 123.813 105.908 124.411C106.656 125.075 107.212 125.563 107.577 125.875Z" fill="white" />
	<path d="M113.87 119.142C114.297 119.563 114.959 120.203 115.856 121.059C116.933 122.088 117.721 122.827 118.22 123.275L115.775 125.835L114.559 124.654C113.228 123.354 112.197 122.356 111.467 121.659C110.772 120.996 109.782 120.064 108.495 118.863L107.313 117.755L109.758 115.194C110.771 116.19 111.603 116.998 112.254 117.62C112.977 118.31 113.516 118.818 113.87 119.142Z" fill="white" />
	<path d="M125.17 111.211L121.627 114.581C121.988 114.844 122.378 114.971 122.795 114.96C123.213 114.935 123.632 114.723 124.053 114.323C124.357 114.034 124.588 113.703 124.746 113.333C124.897 112.954 124.949 112.581 124.901 112.212C125.614 111.989 126.504 111.633 127.57 111.143C127.828 111.864 127.804 112.659 127.499 113.529C127.195 114.384 126.568 115.263 125.619 116.166C124.387 117.338 123.205 117.923 122.074 117.923C120.942 117.909 119.936 117.438 119.053 116.511C118.192 115.605 117.786 114.59 117.835 113.467C117.885 112.343 118.529 111.192 119.768 110.014C120.507 109.311 121.266 108.824 122.043 108.554C122.821 108.283 123.565 108.231 124.275 108.398C124.979 108.557 125.599 108.919 126.137 109.484C126.316 109.673 126.443 109.821 126.518 109.929L125.17 111.211ZM121.481 111.511C121.119 111.855 120.887 112.207 120.786 112.565C120.685 112.923 120.702 113.266 120.835 113.595L123.4 111.156C123.092 111.006 122.775 110.956 122.449 111.004C122.115 111.046 121.793 111.214 121.481 111.511Z" fill="white" />
	<path d="M132.902 103.882C133.247 104.259 133.633 104.469 134.063 104.512C134.5 104.549 134.947 104.374 135.405 103.986C135.657 103.773 135.844 103.537 135.965 103.278C136.08 103.011 136.141 102.711 136.147 102.378C137.01 102.081 137.954 101.657 138.979 101.104C139.224 101.906 139.184 102.725 138.858 103.564C138.539 104.395 137.903 105.215 136.948 106.021C135.672 107.099 134.477 107.598 133.363 107.519C132.248 107.439 131.281 106.914 130.462 105.944C129.642 104.974 129.286 103.933 129.394 102.821C129.501 101.709 130.193 100.614 131.469 99.5362C132.424 98.7294 133.338 98.2386 134.211 98.0637C135.092 97.8823 135.907 97.9792 136.656 98.3544C136.099 99.074 135.523 99.9338 134.928 100.934C134.598 100.885 134.296 100.899 134.019 100.975C133.737 101.043 133.47 101.184 133.218 101.397C132.759 101.784 132.512 102.196 132.475 102.633C132.446 103.063 132.588 103.48 132.902 103.882Z" fill="white" />
	<path d="M146.428 91.3129C145.659 91.8218 144.963 92.2942 144.34 92.7302L145.29 94.0052C145.617 94.4351 145.965 94.7039 146.336 94.8116C146.709 94.9052 147.134 94.7705 147.612 94.4075C147.795 94.2683 147.958 94.1193 148.101 93.9604C148.293 94.2792 148.504 94.5898 148.734 94.8924C148.843 95.0357 149.099 95.3561 149.502 95.8535C149.2 96.1835 148.936 96.4471 148.709 96.6446C148.482 96.842 148.178 97.086 147.795 97.3764C146.864 98.0843 146.034 98.3636 145.305 98.2142C144.578 98.0508 143.909 97.567 143.297 96.7629L141.776 94.7355C141.413 95.0358 141.041 95.3561 140.66 95.6965L139.053 93.5827C139.467 93.268 139.718 92.8705 139.805 92.3899C139.892 91.9093 139.824 91.4648 139.601 91.0562L142.85 88.5875C142.867 89.4534 142.756 90.2412 142.517 90.9507L144.822 89.1991L146.428 91.3129Z" fill="white" />
	<path d="M150.224 84.2374C149.707 84.5977 149.233 84.7394 148.801 84.6624C148.378 84.5797 148.023 84.3333 147.737 83.9231C147.457 83.5212 147.348 83.1031 147.411 82.6691C147.483 82.2293 147.777 81.8292 148.293 81.4689C148.786 81.1257 149.257 80.998 149.708 81.0857C150.154 81.1652 150.514 81.4018 150.789 81.7955C151.074 82.2057 151.179 82.6266 151.102 83.0582C151.025 83.4897 150.732 83.8828 150.224 84.2374ZM153.986 92.6769C153.123 91.3161 152.391 90.2051 151.791 89.3438C151.076 88.3184 150.242 87.1929 149.29 85.9671L152.243 83.9082C153.03 85.1762 153.798 86.3475 154.547 87.4221C155.176 88.3245 155.965 89.3954 156.915 90.6351L153.986 92.6769Z" fill="white" />
	<path d="M165.319 85.3124C163.871 86.2218 162.596 86.5616 161.496 86.3318C160.398 86.0882 159.509 85.4245 158.828 84.3405C158.163 83.2819 157.962 82.2096 158.225 81.1236C158.496 80.0323 159.356 79.0319 160.804 78.1225C161.778 77.5109 162.692 77.1613 163.546 77.0736C164.403 76.9721 165.159 77.094 165.813 77.4392C166.461 77.776 166.995 78.2789 167.415 78.9479C168.101 80.0403 168.288 81.1455 167.974 82.2634C167.669 83.376 166.784 84.3923 165.319 85.3124ZM164.014 83.121C164.564 82.7753 164.892 82.3861 164.999 81.9534C165.105 81.5207 165.019 81.0842 164.743 80.6438C164.482 80.2288 164.134 79.9752 163.698 79.8828C163.257 79.782 162.761 79.9044 162.211 80.2501C161.66 80.5958 161.341 80.9797 161.251 81.4017C161.162 81.8238 161.25 82.2466 161.516 82.67C161.793 83.1104 162.141 83.382 162.56 83.485C162.979 83.588 163.463 83.4667 164.014 83.121Z" fill="white" />
	<path d="M179.331 76.9526C178.679 75.6339 178.055 74.4305 177.46 73.3423C177.249 72.9562 176.985 72.7019 176.667 72.5792C176.358 72.4518 176.059 72.4672 175.769 72.6254C175.48 72.7837 175.306 73.0496 175.248 73.4231C175.185 73.7879 175.259 74.2037 175.468 74.6704C175.815 75.3469 176.065 75.8255 176.219 76.1063C176.545 76.703 176.92 77.3472 177.343 78.0388L174.197 79.758C173.577 78.456 172.96 77.2434 172.346 76.1202C171.732 74.997 171.04 73.814 170.27 72.5712C170.863 72.281 171.314 72.052 171.621 71.8842C171.946 71.7067 172.381 71.4514 172.929 71.1181L174.368 72.8444C174.186 72.0321 174.219 71.3418 174.467 70.7733C174.71 70.1961 175.116 69.7516 175.687 69.4399C176.213 69.1522 176.734 69.0213 177.25 69.0472C177.761 69.0644 178.22 69.2176 178.629 69.507C179.047 69.7916 179.39 70.1796 179.659 70.671L180.694 72.5664C181.332 73.7335 181.865 74.656 182.292 75.334L179.331 76.9526Z" fill="white" />
	<path d="M244.018 52.6727C243.747 51.2266 243.473 49.8992 243.195 48.6907C243.097 48.2619 242.911 47.9454 242.639 47.7412C242.376 47.5348 242.084 47.4685 241.762 47.5424C241.44 47.6163 241.201 47.8251 241.044 48.169C240.885 48.5031 240.843 48.9232 240.918 49.4292C241.069 50.1744 241.18 50.7029 241.251 51.0148C241.404 51.6776 241.59 52.3992 241.81 53.1797L238.316 53.9821C238.072 52.5607 237.806 51.2263 237.52 49.9788C237.233 48.7313 236.888 47.405 236.483 45.9999C237.133 45.8814 237.628 45.783 237.969 45.7047C238.33 45.6219 238.819 45.4942 239.436 45.3217L240.353 47.3734C240.399 46.5422 240.617 45.8866 241.01 45.4066C241.4 44.9168 241.912 44.5991 242.546 44.4537C243.13 44.3194 243.667 44.3345 244.157 44.4992C244.644 44.6541 245.045 44.9262 245.36 45.3156C245.685 45.7027 245.91 46.1691 246.035 46.7149L246.519 48.8201C246.816 50.1164 247.079 51.1488 247.307 51.9173L244.018 52.6727Z" fill="white" />
	<path d="M255.039 41.4281C255.028 41.4807 255.029 41.5465 255.043 41.6253C255.07 41.7829 255.157 41.8999 255.302 41.9761C255.455 42.0408 255.65 42.0525 255.887 42.0114L257.837 41.672L258.292 44.2876C257.463 44.361 256.806 44.4347 256.321 44.5089C256.65 46.3396 257.011 48.18 257.404 50.03L253.901 50.6395C253.709 49.4752 253.395 47.6419 252.96 45.1395C252.754 45.1854 252.404 45.2717 251.908 45.3986L251.453 42.7829L252.502 42.6003L252.454 42.3195C252.32 41.551 252.364 40.8685 252.584 40.2717C252.805 39.675 253.168 39.1907 253.672 38.8189C254.185 38.4453 254.801 38.1959 255.521 38.0708C256.102 37.9697 256.703 37.9514 257.323 38.016C257.251 38.7695 257.211 39.7052 257.202 40.8232L257.191 41.282C256.942 41.1325 256.676 41.0366 256.395 40.9942C256.121 40.9403 255.876 40.9322 255.66 40.9699C255.482 41.0007 255.34 41.056 255.232 41.1357C255.124 41.2154 255.06 41.3128 255.039 41.4281Z" fill="white" />
	<path d="M270.895 42.5507C269.975 42.6068 269.136 42.6677 268.378 42.7334L268.563 44.3127C268.631 44.8484 268.798 45.2556 269.065 45.5342C269.341 45.8017 269.777 45.8978 270.372 45.8224C270.6 45.7935 270.816 45.746 271.019 45.6799C271.026 46.052 271.053 46.4266 271.101 46.8036C271.124 46.9821 271.185 47.3876 271.285 48.0201C270.859 48.1547 270.498 48.2508 270.203 48.3083C269.908 48.3658 269.522 48.4248 269.046 48.4851C267.885 48.632 267.027 48.4585 266.47 47.9645C265.922 47.4593 265.585 46.7057 265.458 45.7038L265.155 43.1869C264.691 43.2658 264.208 43.3572 263.708 43.4609L263.374 40.8269C263.89 40.7616 264.306 40.5426 264.621 40.17C264.937 39.7974 265.101 39.3785 265.112 38.9134L269.16 38.4008C268.742 39.1594 268.252 39.7859 267.69 40.2805L270.562 39.9168L270.895 42.5507Z" fill="white" />
	<path d="M288.313 42.6332C288.353 43.142 288.528 43.5455 288.84 43.8437C289.162 44.1415 289.622 44.2788 290.222 44.2556C290.552 44.2429 290.844 44.1715 291.099 44.0416C291.354 43.9016 291.587 43.7025 291.797 43.4442C292.659 43.7411 293.664 43.9874 294.813 44.1832C294.513 44.9654 293.976 45.5866 293.203 46.0468C292.441 46.5066 291.435 46.7606 290.186 46.8089C288.517 46.8735 287.268 46.5315 286.438 45.783C285.609 45.0345 285.169 44.0257 285.12 42.7566C285.071 41.4876 285.431 40.4479 286.201 39.6376C286.97 38.8272 288.189 38.3898 289.858 38.3253C291.107 38.277 292.129 38.4526 292.925 38.8522C293.731 39.2513 294.314 39.8292 294.673 40.5859C293.791 40.8101 292.808 41.1334 291.724 41.5556C291.494 41.3143 291.247 41.1387 290.983 41.0288C290.718 40.909 290.421 40.8554 290.091 40.8682C289.491 40.8913 289.043 41.0638 288.745 41.3856C288.457 41.7069 288.313 42.1228 288.313 42.6332Z" fill="white" />
	<path d="M304.645 46.684C302.936 46.6495 301.684 46.2342 300.89 45.438C300.106 44.6321 299.727 43.5892 299.752 42.3095C299.778 41.0597 300.198 40.053 301.014 39.2893C301.839 38.5258 303.107 38.1612 304.816 38.1957C305.966 38.2189 306.922 38.4282 307.684 38.8236C308.457 39.2093 309.021 39.7258 309.378 40.3731C309.736 41.0104 309.906 41.724 309.89 42.5138C309.864 43.8036 309.414 44.8297 308.538 45.5922C307.672 46.3549 306.375 46.7188 304.645 46.684ZM304.757 44.1357C305.406 44.1488 305.895 44.0036 306.221 43.7001C306.547 43.3966 306.715 42.9849 306.726 42.4651C306.736 41.9752 306.584 41.572 306.27 41.2556C305.956 40.9292 305.475 40.7595 304.825 40.7464C304.175 40.7333 303.697 40.8787 303.391 41.1826C303.085 41.4865 302.927 41.8884 302.916 42.3883C302.906 42.9082 303.048 43.3261 303.341 43.6421C303.635 43.9581 304.107 44.1226 304.757 44.1357Z" fill="white" />
	<path d="M319.079 41.2124C319.028 41.8103 318.961 42.7279 318.876 43.965C318.774 45.4515 318.711 46.5297 318.685 47.1995L315.153 46.958L315.284 45.268C315.431 43.4137 315.538 41.9827 315.607 40.975C315.673 40.0173 315.756 38.6598 315.856 36.9025L315.951 35.2852L319.483 35.5267C319.366 36.942 319.277 38.0987 319.216 38.9966C319.147 39.9942 319.102 40.7329 319.079 41.2124Z" fill="white" />
	<path d="M328.254 42.0697C328.182 42.6654 328.081 43.5799 327.953 44.8132C327.798 46.2952 327.696 47.3704 327.647 48.0389L324.126 47.6717L324.316 45.9874C324.529 44.1395 324.688 42.7133 324.793 41.7087C324.892 40.7539 325.023 39.4002 325.186 37.6476L325.339 36.0348L328.86 36.402C328.693 37.8122 328.563 38.9649 328.469 39.8601C328.366 40.8547 328.294 41.5912 328.254 42.0697Z" fill="white" />
	<path d="M341.444 46.1523L336.61 45.4118C336.623 45.8588 336.761 46.2442 337.025 46.5679C337.301 46.8833 337.725 47.0849 338.298 47.1727C338.713 47.2363 339.116 47.217 339.506 47.1149C339.897 47.0029 340.225 46.8153 340.488 46.5521C341.1 46.9797 341.926 47.4654 342.965 48.0091C342.553 48.6541 341.91 49.1221 341.036 49.413C340.173 49.6957 339.094 49.7378 337.799 49.5394C336.119 49.282 334.932 48.7057 334.24 47.8105C333.559 46.9069 333.315 45.8225 333.509 44.5573C333.698 43.3217 334.252 42.3798 335.171 41.7314C336.09 41.0831 337.395 40.8884 339.085 41.1473C340.093 41.3018 340.942 41.6038 341.632 42.0535C342.322 42.5031 342.818 43.0597 343.121 43.7233C343.426 44.3769 343.519 45.0892 343.401 45.8603C343.361 46.1173 343.322 46.3085 343.283 46.434L341.444 46.1523ZM338.949 43.418C338.455 43.3423 338.035 43.3741 337.69 43.5134C337.345 43.6528 337.084 43.8757 336.905 44.1822L340.404 44.7183C340.334 44.3838 340.18 44.1022 339.942 43.8735C339.705 43.635 339.374 43.4831 338.949 43.418Z" fill="white" />
	<path d="M351.971 47.7837C351.884 48.2866 351.954 48.721 352.183 49.0869C352.421 49.4549 352.834 49.7017 353.42 49.8273C353.743 49.8963 354.044 49.8994 354.323 49.8365C354.605 49.7637 354.879 49.6282 355.147 49.4298C355.909 49.9303 356.822 50.4172 357.887 50.8905C357.403 51.5744 356.73 52.0439 355.867 52.2991C355.015 52.5563 353.977 52.5542 352.755 52.2926C351.122 51.9431 349.996 51.3033 349.377 50.3732C348.758 49.443 348.581 48.357 348.847 47.1151C349.112 45.8733 349.718 44.9547 350.664 44.3593C351.609 43.764 352.898 43.6411 354.531 43.9905C355.754 44.2521 356.701 44.6748 357.374 45.2585C358.057 45.8443 358.479 46.5482 358.64 47.3702C357.73 47.3697 356.697 47.4402 355.542 47.5816C355.379 47.2911 355.184 47.06 354.954 46.8882C354.727 46.7067 354.452 46.5814 354.13 46.5123C353.543 46.3868 353.066 46.4431 352.698 46.6814C352.339 46.9218 352.097 47.2892 351.971 47.7837Z" fill="white" />
	<path d="M370.188 50.7907C369.315 50.4941 368.516 50.2326 367.79 50.0064L367.363 51.5381C367.222 52.0596 367.223 52.4999 367.365 52.8589C367.519 53.2109 367.886 53.4648 368.465 53.6205C368.687 53.6802 368.905 53.7179 369.118 53.7338C368.983 54.0807 368.867 54.4377 368.768 54.8047C368.721 54.9785 368.625 55.3771 368.478 56.0003C368.032 55.9634 367.662 55.9157 367.367 55.8572C367.072 55.7986 366.693 55.7071 366.229 55.5825C365.099 55.2789 364.37 54.7932 364.043 54.1252C363.727 53.4502 363.7 52.6249 363.962 51.6495L364.634 49.2053C364.175 49.1026 363.694 49.0044 363.191 48.9107L363.88 46.3467C364.383 46.4816 364.85 46.4364 365.284 46.2112C365.717 45.9859 366.027 45.6602 366.214 45.2341L370.154 46.2928C369.48 46.8365 368.789 47.2307 368.081 47.4755L370.877 48.2267L370.188 50.7907Z" fill="white" />
	<path d="M378.108 49.4635C377.507 49.2752 377.104 48.9869 376.901 48.5984C376.708 48.2129 376.685 47.7816 376.835 47.3044C376.981 46.8368 377.245 46.4952 377.627 46.2794C378.019 46.0667 378.515 46.0545 379.116 46.2427C379.689 46.422 380.079 46.717 380.285 47.1275C380.495 47.5285 380.528 47.9581 380.385 48.4161C380.235 48.8933 379.966 49.2334 379.578 49.4366C379.19 49.6398 378.699 49.6488 378.108 49.4635ZM373.735 57.6038C374.283 56.0883 374.714 54.8296 375.028 53.8275C375.401 52.6347 375.782 51.2867 376.168 49.7836L379.604 50.8594C379.082 52.2574 378.626 53.5815 378.234 54.8316C377.906 55.8814 377.542 57.1611 377.142 58.6707L373.735 57.6038Z" fill="white" />
	<path d="M386.494 62.0596C384.889 61.4707 383.84 60.6707 383.348 59.6594C382.869 58.6422 382.85 57.5328 383.291 56.3311C383.722 55.1576 384.447 54.3424 385.466 53.8856C386.495 53.4323 387.813 53.5001 389.418 54.089C390.498 54.4851 391.334 54.994 391.926 55.616C392.531 56.232 392.896 56.9041 393.023 57.6324C393.154 58.3513 393.083 59.0815 392.811 59.8232C392.367 61.0343 391.606 61.8579 390.53 62.294C389.464 62.7336 388.118 62.6554 386.494 62.0596ZM387.429 59.6863C388.039 59.9102 388.548 59.9317 388.955 59.7508C389.362 59.57 389.655 59.2355 389.834 58.7473C390.003 58.2873 389.991 57.8566 389.797 57.4554C389.607 57.0448 389.207 56.7275 388.596 56.5037C387.986 56.2798 387.487 56.2618 387.098 56.4495C386.71 56.6372 386.43 56.9658 386.257 57.4352C386.078 57.9234 386.076 58.3646 386.251 58.759C386.426 59.1533 386.819 59.4624 387.429 59.6863Z" fill="white" />
	<path d="M401.679 68.0275C402.323 66.7046 402.894 65.4751 403.39 64.339C403.567 63.9358 403.606 63.5711 403.509 63.2447C403.42 62.9223 403.225 62.6951 402.923 62.5629C402.62 62.4307 402.304 62.4559 401.973 62.6387C401.646 62.8123 401.362 63.1247 401.121 63.5759C400.798 64.2643 400.573 64.7551 400.445 65.0483C400.172 65.6713 399.892 66.3619 399.604 67.1201L396.319 65.684C396.97 64.3966 397.551 63.1665 398.064 61.9937C398.577 60.8209 399.089 59.5496 399.6 58.1798C400.193 58.4717 400.65 58.6878 400.97 58.828C401.309 58.9762 401.778 59.1648 402.377 59.3937L401.892 61.5883C402.423 60.9474 402.989 60.551 403.59 60.3991C404.196 60.2381 404.796 60.2878 405.392 60.5482C405.941 60.7885 406.364 61.1205 406.659 61.5442C406.958 61.9587 407.118 62.4161 407.139 62.9166C407.17 63.421 407.073 63.9298 406.848 64.4429L405.983 66.422C405.45 67.6406 405.047 68.6265 404.772 69.3795L401.679 68.0275Z" fill="white" />
	<path d="M460.466 104.333C461.444 103.234 462.326 102.205 463.112 101.246C463.391 100.906 463.528 100.566 463.522 100.225C463.525 99.8908 463.398 99.6191 463.143 99.4099C462.888 99.2007 462.576 99.1392 462.208 99.2254C461.847 99.3039 461.489 99.5277 461.134 99.8968C460.637 100.472 460.287 100.883 460.084 101.131C459.653 101.657 459.196 102.246 458.714 102.897L455.941 100.625C456.916 99.5618 457.809 98.5353 458.62 97.5454C459.432 96.5554 460.269 95.4704 461.133 94.2905C461.624 94.7321 462.005 95.0638 462.276 95.2857C462.562 95.5203 462.962 95.8288 463.476 96.2113L462.415 98.1924C463.1 97.7195 463.752 97.4913 464.372 97.5081C464.998 97.517 465.563 97.7275 466.066 98.1396C466.53 98.5199 466.846 98.954 467.015 99.4417C467.191 99.9217 467.221 100.405 467.106 100.893C466.999 101.387 466.767 101.85 466.412 102.283L465.043 103.954C464.2 104.983 463.544 105.822 463.076 106.473L460.466 104.333Z" fill="white" />
	<path d="M476.103 106.172C476.055 106.195 476.004 106.236 475.95 106.295C475.842 106.414 475.802 106.553 475.831 106.715C475.873 106.876 475.983 107.037 476.161 107.199L477.623 108.534L475.832 110.495C475.267 109.883 474.806 109.409 474.451 109.071C473.204 110.451 471.97 111.863 470.747 113.306L468.122 110.908C468.925 110.044 470.183 108.674 471.895 106.798C471.734 106.664 471.451 106.439 471.047 106.125L472.838 104.165L473.624 104.883L473.816 104.672C474.342 104.096 474.909 103.713 475.516 103.523C476.123 103.332 476.728 103.323 477.33 103.493C477.94 103.671 478.514 104.006 479.053 104.498C479.489 104.896 479.871 105.36 480.2 105.89C479.56 106.294 478.795 106.835 477.906 107.513L477.536 107.784C477.501 107.496 477.415 107.227 477.276 106.978C477.152 106.729 477.008 106.531 476.846 106.382C476.713 106.261 476.582 106.182 476.453 106.145C476.324 106.109 476.207 106.117 476.103 106.172Z" fill="white" />
	<path d="M484.917 119.4C484.309 118.706 483.748 118.08 483.232 117.521L482.096 118.633C481.714 119.015 481.494 119.396 481.437 119.778C481.395 120.16 481.585 120.563 482.009 120.988C482.171 121.151 482.341 121.292 482.518 121.413C482.228 121.646 481.948 121.896 481.679 122.165C481.552 122.292 481.268 122.589 480.83 123.055C480.462 122.8 480.165 122.574 479.939 122.375C479.713 122.177 479.431 121.908 479.092 121.568C478.265 120.74 477.877 119.955 477.927 119.213C477.992 118.47 478.381 117.742 479.096 117.029L480.901 115.249C480.555 114.93 480.187 114.604 479.799 114.272L481.678 112.396C482.045 112.764 482.473 112.959 482.961 112.981C483.449 113.003 483.88 112.876 484.255 112.6L487.137 115.488C486.282 115.622 485.486 115.617 484.751 115.475L486.796 117.524L484.917 119.4Z" fill="white" />
	<path d="M495.511 133.224C495.133 133.567 494.921 133.953 494.876 134.382C494.838 134.818 495.011 135.267 495.396 135.727C495.608 135.98 495.843 136.167 496.102 136.29C496.369 136.406 496.669 136.468 497.002 136.476C497.294 137.339 497.715 138.285 498.262 139.313C497.46 139.555 496.641 139.511 495.804 139.181C494.973 138.859 494.157 138.219 493.354 137.26C492.282 135.98 491.788 134.783 491.873 133.669C491.957 132.555 492.486 131.59 493.46 130.774C494.434 129.959 495.476 129.608 496.588 129.72C497.7 129.833 498.792 130.529 499.864 131.81C500.666 132.768 501.153 133.684 501.324 134.558C501.502 135.44 501.401 136.255 501.023 137.002C500.306 136.442 499.448 135.862 498.451 135.262C498.501 134.933 498.489 134.631 498.414 134.354C498.347 134.071 498.207 133.803 497.995 133.55C497.61 133.09 497.199 132.841 496.762 132.802C496.332 132.771 495.915 132.912 495.511 133.224Z" fill="white" />
	<path d="M502.301 148.622C501.282 147.248 500.845 146.004 500.989 144.889C501.146 143.775 501.739 142.838 502.767 142.075C503.771 141.33 504.825 141.047 505.928 141.224C507.037 141.41 508.101 142.19 509.12 143.563C509.805 144.486 510.224 145.371 510.378 146.215C510.546 147.062 510.483 147.825 510.189 148.503C509.904 149.176 509.444 149.748 508.809 150.218C507.773 150.987 506.686 151.258 505.547 151.032C504.414 150.815 503.332 150.011 502.301 148.622ZM504.385 147.15C504.772 147.672 505.186 147.969 505.625 148.042C506.065 148.114 506.494 147.995 506.911 147.685C507.305 147.393 507.531 147.027 507.589 146.585C507.655 146.137 507.495 145.652 507.107 145.13C506.72 144.608 506.313 144.319 505.885 144.263C505.457 144.207 505.043 144.328 504.641 144.626C504.223 144.935 503.98 145.303 503.909 145.729C503.839 146.154 503.998 146.628 504.385 147.15Z" fill="white" />
	<path d="M515.462 156.688C514.958 157.014 514.191 157.522 513.161 158.212C511.923 159.041 511.031 159.651 510.485 160.04L508.515 157.099L509.932 156.168C511.488 155.15 512.686 154.359 513.525 153.797C514.323 153.263 515.447 152.498 516.898 151.502L518.236 150.588L520.206 153.529C519.015 154.302 518.046 154.94 517.298 155.44C516.467 155.997 515.855 156.413 515.462 156.688Z" fill="white" />
	<path d="M520.397 164.47C519.882 164.778 519.097 165.258 518.043 165.911C516.776 166.695 515.863 167.273 515.304 167.642L513.44 164.633L514.889 163.753C516.481 162.791 517.706 162.044 518.564 161.512C519.381 161.006 520.531 160.282 522.017 159.338L523.387 158.472L525.251 161.481C524.033 162.212 523.041 162.815 522.276 163.288C521.426 163.815 520.8 164.209 520.397 164.47Z" fill="white" />
	<path d="M525.238 177.401L522.866 173.124C522.52 173.408 522.3 173.753 522.205 174.16C522.125 174.571 522.225 175.03 522.506 175.537C522.71 175.904 522.971 176.211 523.291 176.457C523.619 176.698 523.968 176.842 524.337 176.889C524.373 177.635 524.494 178.585 524.7 179.74C523.938 179.809 523.174 179.586 522.409 179.073C521.658 178.563 520.964 177.736 520.329 176.59C519.504 175.104 519.234 173.813 519.518 172.717C519.816 171.626 520.525 170.77 521.644 170.149C522.737 169.542 523.821 169.404 524.896 169.734C525.971 170.064 526.924 170.977 527.753 172.472C528.248 173.364 528.528 174.22 528.595 175.041C528.661 175.862 528.525 176.595 528.186 177.241C527.855 177.882 527.349 178.391 526.666 178.77C526.439 178.896 526.264 178.982 526.14 179.027L525.238 177.401ZM525.874 173.754C525.632 173.317 525.35 173.005 525.028 172.817C524.707 172.629 524.37 172.559 524.019 172.605L525.736 175.701C525.958 175.441 526.086 175.146 526.121 174.818C526.165 174.485 526.083 174.13 525.874 173.754Z" fill="white" />
	<path d="M530.39 186.726C529.939 186.965 529.638 187.287 529.489 187.691C529.343 188.105 529.401 188.582 529.66 189.123C529.803 189.42 529.985 189.66 530.206 189.843C530.435 190.021 530.711 190.155 531.031 190.245C531.102 191.154 531.275 192.175 531.552 193.306C530.716 193.342 529.932 193.097 529.203 192.571C528.477 192.054 527.844 191.232 527.303 190.105C526.58 188.6 526.397 187.318 526.754 186.259C527.111 185.2 527.862 184.396 529.007 183.846C530.152 183.296 531.249 183.213 532.298 183.597C533.348 183.98 534.234 184.925 534.957 186.43C535.498 187.557 535.743 188.565 535.693 189.454C535.648 190.353 535.349 191.117 534.798 191.748C534.241 191.028 533.554 190.254 532.735 189.427C532.865 189.121 532.928 188.824 532.924 188.538C532.928 188.247 532.859 187.953 532.716 187.656C532.457 187.115 532.12 186.772 531.706 186.626C531.297 186.49 530.858 186.523 530.39 186.726Z" fill="white" />
	<path d="M539.159 202.976C538.859 202.104 538.577 201.311 538.311 200.599L536.839 201.198C536.34 201.406 535.993 201.676 535.795 202.008C535.611 202.345 535.635 202.791 535.866 203.344C535.955 203.556 536.058 203.752 536.176 203.93C535.819 204.036 535.466 204.162 535.115 204.309C534.949 204.378 534.574 204.545 533.992 204.811C533.748 204.436 533.559 204.114 533.425 203.844C533.291 203.575 533.131 203.219 532.946 202.777C532.495 201.697 532.433 200.823 532.761 200.155C533.102 199.493 533.738 198.966 534.67 198.577L537.014 197.613C536.815 197.187 536.598 196.746 536.364 196.291L538.814 195.267C539.014 195.747 539.336 196.089 539.78 196.294C540.223 196.499 540.67 196.545 541.122 196.432L542.695 200.197C541.853 199.996 541.118 199.691 540.492 199.281L541.608 201.952L539.159 202.976Z" fill="white" />
	<path d="M545.054 208.428C544.835 207.837 544.817 207.342 545 206.944C545.186 206.555 545.514 206.274 545.983 206.1C546.442 205.929 546.874 205.929 547.278 206.099C547.686 206.279 548 206.664 548.219 207.255C548.427 207.817 548.432 208.306 548.234 208.721C548.045 209.132 547.726 209.421 547.276 209.588C546.807 209.762 546.373 209.757 545.975 209.574C545.577 209.391 545.27 209.009 545.054 208.428ZM535.94 209.951C537.474 209.457 538.733 209.027 539.718 208.662C540.89 208.228 542.189 207.704 543.614 207.09L544.866 210.465C543.441 210.908 542.114 211.357 540.886 211.813C539.854 212.195 538.619 212.69 537.181 213.298L535.94 209.951Z" fill="white" />
	<path d="M540.223 222.768C539.706 221.138 539.697 219.819 540.196 218.812C540.708 217.81 541.573 217.116 542.794 216.73C543.985 216.352 545.074 216.427 546.059 216.954C547.047 217.49 547.799 218.574 548.316 220.204C548.663 221.3 548.772 222.273 548.643 223.121C548.526 223.977 548.218 224.677 547.72 225.223C547.231 225.766 546.61 226.157 545.857 226.396C544.627 226.786 543.51 226.688 542.507 226.104C541.507 225.53 540.745 224.418 540.223 222.768ZM542.672 222.055C542.868 222.675 543.162 223.09 543.554 223.302C543.947 223.513 544.391 223.54 544.886 223.383C545.353 223.235 545.686 222.962 545.885 222.563C546.094 222.162 546.1 221.651 545.903 221.031C545.707 220.412 545.416 220.006 545.03 219.813C544.643 219.621 544.212 219.6 543.735 219.751C543.24 219.908 542.889 220.177 542.684 220.556C542.48 220.936 542.475 221.436 542.672 222.055Z" fill="white" />
	<path d="M544.795 238.43C546.235 238.13 547.557 237.828 548.759 237.526C549.186 237.419 549.499 237.227 549.697 236.95C549.898 236.683 549.958 236.389 549.878 236.069C549.798 235.749 549.584 235.514 549.237 235.364C548.899 235.212 548.479 235.179 547.974 235.264C547.232 235.43 546.706 235.552 546.396 235.63C545.736 235.796 545.019 235.997 544.243 236.233L543.369 232.756C544.785 232.483 546.114 232.19 547.355 231.878C548.596 231.566 549.915 231.193 551.312 230.76C551.443 231.407 551.552 231.9 551.637 232.24C551.728 232.599 551.865 233.085 552.05 233.698L550.018 234.658C550.85 234.686 551.51 234.891 551.998 235.274C552.496 235.654 552.824 236.159 552.982 236.789C553.128 237.371 553.124 237.908 552.97 238.401C552.825 238.891 552.561 239.298 552.178 239.621C551.798 239.954 551.336 240.188 550.793 240.325L548.698 240.851C547.408 241.176 546.382 241.46 545.618 241.703L544.795 238.43Z" fill="white" />
	<path d="M551.603 316.131C553.066 316.285 554.417 316.401 555.654 316.48C556.093 316.508 556.45 316.421 556.723 316.218C556.996 316.025 557.143 315.764 557.164 315.434C557.185 315.105 557.053 314.816 556.768 314.567C556.494 314.319 556.103 314.159 555.597 314.087C554.839 314.018 554.301 313.974 553.982 313.953C553.303 313.91 552.558 313.883 551.747 313.871L551.976 310.293C553.408 310.465 554.763 310.591 556.04 310.673C557.317 310.754 558.687 310.802 560.149 310.815C560.077 311.472 560.03 311.975 560.008 312.324C559.984 312.693 559.967 313.198 559.956 313.839L557.728 314.133C558.512 314.413 559.078 314.81 559.426 315.323C559.784 315.837 559.942 316.418 559.9 317.067C559.862 317.666 559.694 318.176 559.397 318.598C559.109 319.02 558.734 319.327 558.271 319.518C557.807 319.719 557.296 319.801 556.737 319.766L554.581 319.628C553.254 319.543 552.19 319.501 551.388 319.499L551.603 316.131Z" fill="white" />
	<path d="M559.234 329.904C559.186 329.879 559.123 329.861 559.044 329.852C558.885 329.833 558.748 329.882 558.633 330C558.528 330.128 558.461 330.312 558.433 330.55L558.201 332.517L555.564 332.206C555.731 331.39 555.848 330.739 555.915 330.254C554.067 330.046 552.2 329.867 550.315 329.715L550.73 326.184C551.901 326.332 553.748 326.555 556.27 326.852C556.285 326.642 556.302 326.282 556.322 325.771L558.959 326.081L558.834 327.139L559.117 327.172C559.892 327.263 560.534 327.5 561.043 327.882C561.551 328.264 561.912 328.75 562.125 329.339C562.336 329.937 562.399 330.599 562.314 331.324C562.245 331.91 562.091 332.491 561.852 333.067C561.15 332.783 560.265 332.478 559.196 332.15L558.759 332.008C558.974 331.812 559.142 331.585 559.263 331.327C559.392 331.081 559.47 330.848 559.496 330.63C559.517 330.451 559.505 330.299 559.459 330.173C559.413 330.046 559.338 329.957 559.234 329.904Z" fill="white" />
	<path d="M553.63 344.781C553.839 343.883 554.02 343.061 554.174 342.316L552.607 342.043C552.075 341.955 551.636 341.999 551.293 342.175C550.958 342.363 550.742 342.753 550.644 343.345C550.607 343.572 550.591 343.793 550.596 344.006C550.237 343.907 549.871 343.826 549.496 343.764C549.318 343.735 548.912 343.678 548.277 343.593C548.27 343.146 548.281 342.773 548.31 342.474C548.339 342.174 548.393 341.788 548.471 341.314C548.661 340.16 549.073 339.387 549.705 338.994C550.345 338.614 551.164 338.505 552.161 338.67L554.659 339.097C554.716 338.63 554.766 338.142 554.81 337.632L557.429 338.065C557.345 338.578 557.436 339.039 557.703 339.448C557.97 339.856 558.325 340.133 558.767 340.277L558.103 344.302C557.495 343.685 557.035 343.037 556.721 342.357L556.25 345.213L553.63 344.781Z" fill="white" />
	<path d="M548.58 361.45C548.081 361.342 547.645 361.396 547.27 361.609C546.893 361.833 546.629 362.235 546.481 362.816C546.399 363.136 546.384 363.437 546.435 363.718C546.497 364.002 546.621 364.282 546.809 364.557C546.278 365.299 545.755 366.192 545.239 367.236C544.575 366.726 544.133 366.034 543.913 365.162C543.69 364.3 543.734 363.263 544.044 362.052C544.458 360.435 545.143 359.335 546.097 358.754C547.051 358.172 548.143 358.039 549.374 358.355C550.604 358.67 551.497 359.312 552.054 360.28C552.611 361.249 552.683 362.542 552.268 364.16C551.958 365.371 551.498 366.301 550.887 366.949C550.275 367.608 549.555 368.002 548.727 368.13C548.764 367.221 548.735 366.186 548.64 365.026C548.936 364.875 549.175 364.689 549.356 364.467C549.546 364.247 549.683 363.977 549.764 363.658C549.913 363.076 549.876 362.597 549.653 362.22C549.427 361.852 549.07 361.596 548.58 361.45Z" fill="white" />
	<path d="M540.036 375.946C540.557 374.317 541.313 373.236 542.302 372.702C543.299 372.181 544.406 372.115 545.625 372.506C546.816 372.886 547.661 373.577 548.16 374.576C548.656 375.586 548.643 376.904 548.122 378.533C547.772 379.628 547.298 380.485 546.702 381.102C546.112 381.733 545.455 382.126 544.733 382.284C544.02 382.444 543.288 382.404 542.535 382.163C541.307 381.77 540.452 381.045 539.971 379.988C539.487 378.941 539.509 377.594 540.036 375.946ZM542.447 376.78C542.248 377.399 542.248 377.908 542.446 378.308C542.644 378.707 542.99 378.986 543.486 379.144C543.952 379.294 544.382 379.263 544.775 379.053C545.177 378.845 545.477 378.432 545.675 377.813C545.873 377.194 545.87 376.694 545.667 376.314C545.463 375.934 545.123 375.668 544.647 375.515C544.151 375.357 543.71 375.373 543.324 375.565C542.937 375.756 542.645 376.161 542.447 376.78Z" fill="white" />
	<path d="M541.16 391.34C540.601 391.121 539.741 390.794 538.58 390.359C537.184 389.838 536.169 389.469 535.534 389.253L536.774 385.937L538.356 386.545C540.092 387.215 541.432 387.727 542.378 388.08C543.278 388.417 544.555 388.883 546.21 389.481L547.733 390.034L546.494 393.35C545.17 392.834 544.087 392.419 543.244 392.103C542.308 391.753 541.613 391.499 541.16 391.34Z" fill="white" />
	<path d="M537.718 399.888C537.168 399.649 536.32 399.292 535.175 398.816C533.799 398.245 532.797 397.841 532.171 397.602L533.528 394.333L535.088 394.996C536.798 395.728 538.12 396.287 539.052 396.674C539.939 397.042 541.199 397.554 542.832 398.21L544.334 398.818L542.977 402.087C541.673 401.524 540.606 401.07 539.775 400.725C538.851 400.342 538.166 400.063 537.718 399.888Z" fill="white" />
	<path d="M530.04 411.363L532.129 406.942C531.697 406.826 531.288 406.849 530.903 407.009C530.522 407.183 530.208 407.533 529.96 408.057C529.78 408.437 529.684 408.828 529.67 409.231C529.666 409.638 529.752 410.005 529.93 410.332C529.345 410.797 528.644 411.45 527.826 412.291C527.325 411.712 527.06 410.962 527.031 410.041C527.007 409.133 527.274 408.087 527.834 406.903C528.56 405.366 529.451 404.393 530.507 403.985C531.567 403.591 532.676 403.667 533.833 404.214C534.964 404.748 535.708 405.548 536.067 406.613C536.426 407.679 536.241 408.985 535.51 410.531C535.074 411.453 534.542 412.18 533.914 412.713C533.286 413.246 532.611 413.563 531.889 413.664C531.175 413.769 530.466 413.655 529.761 413.322C529.526 413.211 529.354 413.118 529.245 413.045L530.04 411.363ZM533.372 409.753C533.586 409.301 533.675 408.889 533.64 408.519C533.605 408.148 533.466 407.834 533.223 407.575L531.711 410.776C532.051 410.804 532.365 410.737 532.652 410.574C532.949 410.415 533.189 410.142 533.372 409.753Z" fill="white" />
	<path d="M525.471 420.988C525.014 420.761 524.577 420.704 524.161 420.819C523.741 420.942 523.386 421.267 523.099 421.794C522.94 422.083 522.852 422.371 522.832 422.657C522.821 422.947 522.873 423.249 522.987 423.562C522.29 424.149 521.562 424.886 520.805 425.771C520.287 425.112 520.03 424.333 520.031 423.433C520.028 422.542 520.326 421.549 520.926 420.452C521.727 418.987 522.662 418.09 523.73 417.762C524.798 417.435 525.889 417.575 527.004 418.184C528.118 418.794 528.825 419.636 529.126 420.712C529.427 421.789 529.176 423.059 528.375 424.525C527.776 425.621 527.1 426.409 526.349 426.887C525.592 427.374 524.797 427.577 523.963 427.498C524.224 426.626 524.451 425.616 524.645 424.468C524.97 424.395 525.248 424.273 525.478 424.103C525.716 423.937 525.915 423.709 526.073 423.42C526.361 422.893 526.443 422.42 526.32 421.999C526.192 421.587 525.909 421.25 525.471 420.988Z" fill="white" />
	<path d="M517.389 437.589C517.922 436.837 518.401 436.145 518.825 435.514L517.479 434.667C517.019 434.384 516.597 434.259 516.213 434.292C515.831 434.34 515.483 434.618 515.169 435.129C515.048 435.325 514.95 435.523 514.874 435.723C514.58 435.495 514.271 435.281 513.947 435.082C513.794 434.987 513.44 434.781 512.884 434.462C513.047 434.046 513.198 433.704 513.339 433.439C513.479 433.173 513.675 432.835 513.927 432.427C514.54 431.43 515.214 430.87 515.948 430.747C516.685 430.637 517.483 430.847 518.343 431.377L520.494 432.719C520.723 432.308 520.955 431.875 521.188 431.42L523.449 432.812C523.176 433.255 523.086 433.716 523.178 434.196C523.27 434.675 523.494 435.065 523.849 435.366L521.709 438.84C521.381 438.039 521.2 437.264 521.168 436.516L519.649 438.981L517.389 437.589Z" fill="white" />
	<path d="M516.4 445.558C516.752 445.035 517.143 444.732 517.574 444.648C517.998 444.573 518.418 444.675 518.833 444.954C519.239 445.228 519.491 445.579 519.589 446.006C519.681 446.442 519.551 446.921 519.199 447.444C518.864 447.941 518.47 448.231 518.017 448.312C517.573 448.398 517.152 448.307 516.754 448.039C516.339 447.76 516.09 447.405 516.006 446.974C515.922 446.544 516.054 446.072 516.4 445.558ZM509.847 439.043C511.143 440.001 512.226 440.773 513.097 441.36C514.134 442.059 515.317 442.808 516.647 443.608L514.635 446.593C513.444 445.694 512.306 444.879 511.219 444.147C510.307 443.532 509.185 442.818 507.852 442.004L509.847 439.043Z" fill="white" />
	<path d="M501.933 449.999C502.956 448.629 504.022 447.852 505.131 447.67C506.243 447.501 507.312 447.799 508.338 448.565C509.339 449.313 509.914 450.24 510.06 451.348C510.201 452.463 509.76 453.707 508.737 455.077C508.05 455.999 507.323 456.654 506.558 457.044C505.795 457.448 505.046 457.607 504.312 457.521C503.586 457.44 502.906 457.164 502.273 456.692C501.239 455.92 500.667 454.957 500.556 453.801C500.439 452.653 500.898 451.386 501.933 449.999ZM503.941 451.573C503.552 452.094 503.386 452.575 503.443 453.017C503.5 453.459 503.737 453.835 504.154 454.146C504.547 454.439 504.963 454.55 505.403 454.479C505.851 454.414 506.269 454.121 506.658 453.6C507.047 453.079 507.206 452.606 507.137 452.18C507.068 451.754 506.833 451.392 506.433 451.093C506.016 450.782 505.594 450.654 505.166 450.709C504.738 450.764 504.33 451.052 503.941 451.573Z" fill="white" />
	<path d="M491.88 462.848C492.964 463.842 493.979 464.74 494.926 465.54C495.262 465.824 495.601 465.966 495.941 465.966C496.275 465.973 496.549 465.851 496.762 465.599C496.975 465.347 497.041 465.036 496.96 464.667C496.887 464.304 496.669 463.943 496.305 463.583C495.738 463.077 495.332 462.721 495.087 462.514C494.568 462.076 493.986 461.61 493.342 461.118L495.656 458.38C496.704 459.37 497.717 460.279 498.694 461.105C499.672 461.931 500.744 462.785 501.911 463.666C501.462 464.151 501.125 464.527 500.899 464.794C500.66 465.077 500.345 465.472 499.955 465.98L497.99 464.889C498.453 465.581 498.671 466.237 498.645 466.857C498.627 467.483 498.408 468.044 497.988 468.54C497.601 468.999 497.162 469.309 496.672 469.47C496.189 469.639 495.705 469.661 495.219 469.539C494.727 469.424 494.267 469.186 493.839 468.825L492.19 467.43C491.174 466.572 490.344 465.903 489.701 465.425L491.88 462.848Z" fill="white" />
	<path d="M385.915 536.276C387.522 535.691 388.839 535.627 389.867 536.083C390.889 536.552 391.619 537.388 392.056 538.591C392.483 539.766 392.454 540.857 391.969 541.863C391.475 542.873 390.424 543.67 388.817 544.255C387.736 544.648 386.769 544.797 385.915 544.703C385.056 544.622 384.343 544.344 383.776 543.869C383.213 543.403 382.797 542.799 382.527 542.057C382.086 540.845 382.136 539.725 382.678 538.698C383.21 537.675 384.289 536.867 385.915 536.276ZM386.73 538.693C386.119 538.915 385.716 539.226 385.522 539.627C385.327 540.028 385.318 540.472 385.496 540.961C385.664 541.422 385.951 541.743 386.357 541.925C386.767 542.116 387.278 542.101 387.889 541.879C388.5 541.656 388.893 541.348 389.069 540.955C389.245 540.561 389.248 540.129 389.077 539.659C388.899 539.17 388.616 538.832 388.228 538.643C387.84 538.454 387.341 538.471 386.73 538.693Z" fill="white" />
	<path d="M374.426 546.585C374.258 546.009 373.991 545.129 373.623 543.945C373.182 542.522 372.853 541.493 372.635 540.859L376.016 539.811L376.504 541.434C377.036 543.217 377.451 544.59 377.75 545.555C378.035 546.472 378.447 547.768 378.987 549.443L379.482 550.986L376.1 552.034C375.699 550.672 375.365 549.561 375.098 548.701C374.802 547.746 374.578 547.041 374.426 546.585Z" fill="white" />
	<path d="M365.559 549.095C365.412 548.513 365.176 547.624 364.851 546.427C364.46 544.989 364.168 543.95 363.973 543.308L367.389 542.381L367.819 544.021C368.287 545.821 368.653 547.209 368.918 548.183C369.169 549.11 369.535 550.42 370.016 552.113L370.454 553.672L367.038 554.6C366.685 553.224 366.391 552.102 366.155 551.233C365.893 550.268 365.695 549.556 365.559 549.095Z" fill="white" />
	<path d="M351.784 550.044L356.56 548.991C356.387 548.579 356.119 548.269 355.756 548.063C355.385 547.868 354.917 547.833 354.35 547.958C353.94 548.048 353.572 548.211 353.245 548.447C352.92 548.693 352.683 548.986 352.532 549.326C351.807 549.148 350.861 548.993 349.696 548.861C349.848 548.11 350.279 547.442 350.989 546.855C351.692 546.281 352.683 545.852 353.962 545.57C355.623 545.204 356.937 545.314 357.906 545.899C358.867 546.496 359.485 547.42 359.761 548.67C360.03 549.89 359.853 550.969 359.229 551.905C358.606 552.841 357.46 553.493 355.79 553.861C354.794 554.081 353.893 554.105 353.087 553.935C352.282 553.764 351.618 553.424 351.096 552.914C350.576 552.414 350.232 551.784 350.065 551.022C350.009 550.768 349.976 550.576 349.968 550.444L351.784 550.044ZM355.097 551.694C355.586 551.587 355.966 551.406 356.237 551.151C356.509 550.897 356.672 550.595 356.728 550.244L353.271 551.006C353.457 551.293 353.703 551.5 354.007 551.627C354.314 551.765 354.677 551.787 355.097 551.694Z" fill="white" />
	<path d="M341.378 552.319C341.277 551.819 341.055 551.439 340.71 551.18C340.355 550.923 339.881 550.841 339.289 550.936C338.963 550.988 338.681 551.094 338.443 551.253C338.207 551.422 338 551.648 337.822 551.929C336.93 551.737 335.903 551.613 334.739 551.555C334.944 550.743 335.402 550.062 336.115 549.513C336.817 548.966 337.786 548.593 339.02 548.397C340.669 548.133 341.951 548.324 342.863 548.968C343.776 549.613 344.333 550.562 344.533 551.816C344.733 553.07 344.499 554.145 343.832 555.042C343.165 555.938 342.007 556.518 340.357 556.781C339.123 556.977 338.087 556.925 337.249 556.623C336.401 556.323 335.753 555.819 335.306 555.11C336.155 554.782 337.093 554.344 338.119 553.796C338.376 554.008 338.642 554.153 338.918 554.23C339.195 554.318 339.497 554.336 339.823 554.284C340.415 554.189 340.84 553.964 341.097 553.609C341.345 553.256 341.438 552.826 341.378 552.319Z" fill="white" />
	<path d="M323.301 556.085C324.222 556.047 325.062 556.002 325.821 555.951L325.667 554.368C325.61 553.832 325.45 553.421 325.189 553.137C324.918 552.865 324.485 552.76 323.888 552.824C323.659 552.848 323.443 552.892 323.238 552.954C323.239 552.581 323.219 552.206 323.178 551.829C323.159 551.65 323.106 551.243 323.018 550.609C323.447 550.482 323.809 550.393 324.105 550.342C324.402 550.29 324.788 550.238 325.266 550.187C326.429 550.063 327.284 550.253 327.831 550.758C328.369 551.274 328.691 552.034 328.799 553.038L329.053 555.56C329.518 555.491 330.002 555.409 330.505 555.315L330.787 557.955C330.27 558.01 329.85 558.221 329.527 558.587C329.205 558.954 329.033 559.369 329.012 559.834L324.955 560.268C325.388 559.517 325.89 558.9 326.462 558.417L323.583 558.725L323.301 556.085Z" fill="white" />
	<path d="M316.395 560.179C317.023 560.138 317.502 560.262 317.832 560.551C318.152 560.84 318.328 561.235 318.36 561.734C318.393 562.223 318.269 562.637 317.991 562.975C317.703 563.315 317.244 563.505 316.615 563.547C316.017 563.586 315.547 563.451 315.206 563.143C314.866 562.845 314.68 562.456 314.648 561.977C314.616 561.478 314.744 561.064 315.033 560.734C315.322 560.405 315.776 560.22 316.395 560.179ZM317.537 551.01C317.572 552.621 317.624 553.95 317.693 554.998C317.775 556.245 317.907 557.64 318.088 559.181L314.496 559.417C314.478 557.925 314.426 556.525 314.34 555.218C314.268 554.12 314.146 552.795 313.975 551.243L317.537 551.01Z" fill="white" />
	<path d="M304.028 551.454C305.738 551.424 307.005 551.792 307.828 552.558C308.642 553.334 309.06 554.362 309.082 555.642C309.104 556.891 308.721 557.913 307.935 558.707C307.139 559.501 305.886 559.913 304.176 559.943C303.026 559.963 302.063 559.789 301.286 559.423C300.5 559.066 299.916 558.571 299.535 557.938C299.154 557.314 298.957 556.608 298.943 555.818C298.921 554.528 299.333 553.486 300.179 552.691C301.016 551.896 302.299 551.484 304.028 551.454ZM304.013 554.005C303.363 554.016 302.881 554.179 302.566 554.495C302.251 554.81 302.099 555.228 302.108 555.748C302.116 556.238 302.283 556.635 302.608 556.939C302.934 557.254 303.422 557.405 304.072 557.394C304.721 557.383 305.194 557.219 305.488 556.904C305.783 556.589 305.926 556.182 305.917 555.682C305.908 555.162 305.751 554.749 305.446 554.445C305.14 554.14 304.663 553.993 304.013 554.005Z" fill="white" />
	<path d="M287.713 551.364C287.59 552.83 287.502 554.182 287.448 555.421C287.429 555.86 287.524 556.215 287.732 556.484C287.931 556.753 288.195 556.895 288.525 556.909C288.854 556.923 289.141 556.785 289.383 556.495C289.626 556.216 289.778 555.822 289.84 555.314C289.893 554.556 289.926 554.017 289.94 553.697C289.969 553.018 289.981 552.272 289.976 551.461L293.558 551.616C293.416 553.051 293.317 554.408 293.262 555.687C293.207 556.966 293.187 558.336 293.204 559.799C292.546 559.74 292.042 559.703 291.693 559.688C291.323 559.672 290.818 559.665 290.177 559.668L289.838 557.446C289.573 558.235 289.188 558.809 288.682 559.168C288.176 559.536 287.598 559.706 286.949 559.678C286.349 559.652 285.835 559.495 285.408 559.206C284.979 558.928 284.665 558.559 284.464 558.1C284.254 557.64 284.161 557.131 284.185 556.571L284.279 554.413C284.336 553.084 284.357 552.019 284.342 551.218L287.713 551.364Z" fill="white" />
</svg>
