<svg width="35" height="35" viewBox="0 0 35 35" fill="none" xmlns="http://www.w3.org/2000/svg">
	<path d="M17.9011 5.73242C21.2472 5.73242 24.5925 5.73242 27.9386 5.73242C28.5262 5.73242 28.7873 5.9943 28.7873 6.58352C28.7873 11.0602 28.7849 15.5368 28.7921 20.0135C28.7929 20.3264 28.6835 20.5628 28.4703 20.7744C27.1985 22.0398 25.929 23.3077 24.6595 24.5748C24.1749 25.0586 23.6863 25.5376 23.2112 26.0294C23.0084 26.2386 22.7737 26.3065 22.4943 26.3057C21.0907 26.3017 19.6871 26.3065 18.2835 26.3009C18.1118 26.3001 17.9913 26.3472 17.8667 26.4734C17.0428 27.3125 16.2084 28.142 15.3773 28.974C15.1809 29.1704 14.9533 29.2702 14.6643 29.2662C13.7661 29.255 12.8687 29.2622 11.9705 29.2622C11.4356 29.2622 11.1769 29.0027 11.1753 28.4638C11.1737 27.8251 11.1681 27.1863 11.1793 26.5484C11.1825 26.36 11.133 26.2985 10.9366 26.3001C9.57291 26.3081 8.20923 26.3049 6.84556 26.3041C6.24037 26.3041 6.00005 26.0622 6.00005 25.4554C6.00005 20.1005 5.99925 14.7456 6.00404 9.3915C6.00404 9.1903 6.03997 8.97953 6.10624 8.78951C6.39845 7.95598 6.70823 7.12883 7.01243 6.29929C7.16332 5.88651 7.38368 5.73242 7.8236 5.73242C11.1833 5.73242 14.5422 5.73242 17.9011 5.73242ZM27.4156 7.11366C27.3238 7.10887 27.2591 7.10249 27.1937 7.10249C20.9198 7.10169 14.646 7.10248 8.37211 7.09849C8.21961 7.09849 8.15175 7.14719 8.10145 7.28851C7.87949 7.91446 7.64316 8.53641 7.41881 9.16156C7.38368 9.25897 7.36292 9.36755 7.36292 9.47134C7.36053 14.554 7.36133 19.6374 7.35654 24.7201C7.35654 24.9109 7.42041 24.9516 7.59686 24.9508C8.98049 24.9444 10.3641 24.9468 11.7486 24.9476C12.2747 24.9476 12.5294 25.2031 12.531 25.7324C12.5326 26.3648 12.531 26.9963 12.5318 27.6286C12.5318 27.8945 12.5326 27.8945 12.7881 27.8953C13.2935 27.8961 13.7997 27.8897 14.305 27.8985C14.4567 27.9009 14.5693 27.8562 14.6739 27.7516C15.4284 26.9923 16.1973 26.2482 16.935 25.473C17.2767 25.1137 17.628 24.9221 18.1486 24.9356C19.4851 24.9716 20.8224 24.95 22.1597 24.9428C22.2651 24.942 22.3985 24.8973 22.4711 24.8255C23.1969 24.1133 23.913 23.3907 24.6324 22.6729C25.5027 21.8043 26.3729 20.9356 27.2472 20.0718C27.3693 19.9512 27.4188 19.8258 27.4188 19.6518C27.414 15.56 27.4148 11.469 27.4148 7.37713C27.4156 7.29729 27.4156 7.21746 27.4156 7.11366Z" fill="currentColor" />
	<path d="M17.3915 8.6883C19.9192 8.6883 22.4478 8.6883 24.9755 8.6883C25.5847 8.6883 25.8266 8.92782 25.8266 9.53221C25.8266 12.626 25.8258 15.719 25.8282 18.8129C25.8282 19.0907 25.766 19.327 25.5576 19.533C24.3815 20.6987 23.2095 21.8691 22.0446 23.046C21.8306 23.2624 21.5943 23.3462 21.2965 23.3438C20.0262 23.3366 18.7552 23.3366 17.4841 23.3462C17.3508 23.347 17.1951 23.3989 17.0873 23.4779C16.2729 24.0759 15.4681 24.6867 14.6594 25.2919C14.5747 25.3558 14.4877 25.4188 14.3951 25.4699C13.936 25.7198 13.4051 25.4212 13.3915 24.8983C13.3795 24.4528 13.3803 24.0065 13.3915 23.561C13.3963 23.3813 13.3316 23.3366 13.1608 23.3374C12.0294 23.3438 10.8989 23.3414 9.76754 23.3406C9.19589 23.3398 8.95557 23.0995 8.95557 22.5262C8.95557 18.1885 8.95557 13.8508 8.95557 9.51305C8.95557 8.94059 9.21026 8.6875 9.78511 8.6875C12.3224 8.6875 14.8566 8.6883 17.3915 8.6883ZM14.7496 23.5011C14.8318 23.4524 14.8725 23.4324 14.9085 23.4061C15.425 23.0196 15.948 22.6428 16.4526 22.2412C16.6865 22.0552 16.9316 21.9865 17.2238 21.9881C18.4741 21.9961 19.7252 21.9937 20.9763 21.9881C21.0674 21.9881 21.1863 21.9657 21.2462 21.9067C22.2809 20.8823 23.3069 19.85 24.3392 18.8232C24.443 18.7202 24.4773 18.6148 24.4773 18.4727C24.4741 15.7582 24.4749 13.0444 24.4749 10.3298C24.4749 10.052 24.4741 10.052 24.1867 10.052C19.6566 10.052 15.1256 10.052 10.5955 10.052C10.3137 10.052 10.3137 10.0528 10.3137 10.3346C10.3137 14.1198 10.3137 17.9051 10.3137 21.6911C10.3137 21.9921 10.3137 21.9921 10.6162 21.9921C11.7404 21.9921 12.8646 21.9945 13.9895 21.9905C14.2785 21.9897 14.5236 22.0719 14.6538 22.3402C14.7176 22.4719 14.7384 22.6316 14.748 22.7801C14.7608 23.0085 14.7496 23.2384 14.7496 23.5011Z" fill="currentColor" />
	<path d="M18.0218 15.2867C18.0218 14.3358 18.021 13.3849 18.0218 12.4332C18.0226 11.9063 18.2773 11.6524 18.8074 11.6516C19.7384 11.65 20.6693 11.65 21.601 11.6516C22.1432 11.6524 22.397 11.9063 22.397 12.446C22.3978 14.335 22.3978 16.2233 22.397 18.1123C22.397 18.6536 22.1296 18.9203 21.5875 18.9211C20.6765 18.9219 19.7655 18.9211 18.8537 18.9211C18.2693 18.9211 18.0218 18.6712 18.021 18.0795C18.0218 17.1486 18.0218 16.2177 18.0218 15.2867ZM21.0118 17.551C21.0206 17.4959 21.0262 17.4767 21.0262 17.4568C21.027 16.0276 21.0262 14.5985 21.031 13.1702C21.0318 13.0304 20.9679 13.0049 20.8489 13.0065C20.4434 13.0105 20.0378 13.0185 19.633 13.0033C19.4326 12.9961 19.3727 13.0544 19.3735 13.2588C19.3823 14.5618 19.3783 15.864 19.3783 17.167C19.3783 17.2532 19.3663 17.3426 19.3839 17.4248C19.3943 17.4727 19.4541 17.5446 19.4925 17.5454C19.9954 17.5542 20.4992 17.551 21.0118 17.551Z" fill="currentColor" />
	<path d="M16.5416 15.2889C16.5416 16.2262 16.5424 17.1643 16.5416 18.1016C16.5408 18.6637 16.2838 18.9192 15.7241 18.92C14.7995 18.92 13.875 18.9208 12.9512 18.92C12.4418 18.9192 12.1632 18.6406 12.1632 18.1272C12.1624 16.2254 12.1624 14.3228 12.1632 12.421C12.1632 11.9204 12.4275 11.6521 12.9257 11.6505C13.8766 11.6474 14.8275 11.6481 15.7784 11.6505C16.2822 11.6521 16.5392 11.9108 16.5408 12.4154C16.5432 13.3735 16.5416 14.3308 16.5416 15.2889ZM15.1644 17.5508C15.1724 17.4893 15.1828 17.4509 15.1828 17.4134C15.1836 16.0042 15.182 14.5943 15.186 13.1851C15.1868 13.0414 15.1301 13.003 14.9975 13.0054C14.5919 13.011 14.1864 13.0182 13.7808 13.003C13.5764 12.9951 13.5237 13.0613 13.5245 13.2617C13.5333 14.5448 13.5293 15.8278 13.5293 17.1116C13.5293 17.5523 13.5293 17.5523 13.966 17.5523C14.3628 17.5508 14.7604 17.5508 15.1644 17.5508Z" fill="currentColor" />
</svg>
