<svg width="35" height="35" viewBox="0 0 35 35" fill="none" xmlns="http://www.w3.org/2000/svg">
	<path d="M10.9466 22.9702C10.6105 22.7602 10.2592 22.571 9.94141 22.3355C9.02485 21.6576 8.40529 20.7642 8.08592 19.668C8.05479 19.5626 8.02924 19.4357 8.05878 19.3359C8.11068 19.157 8.04441 19.0692 7.91586 18.9542C6.72544 17.8851 6.13223 16.5462 6.15538 14.9438C6.16097 14.5454 6.41487 14.337 6.82206 14.2668C6.78932 14.1933 6.76616 14.1359 6.73902 14.08C5.87914 12.3219 5.95259 10.6029 6.95938 8.92626C7.21407 8.50231 7.78892 8.46559 8.08832 8.8584C8.80689 9.80132 9.63961 10.6269 10.6065 11.3119C11.4624 11.9187 12.3877 12.3945 13.3801 12.7386C14.2576 13.0428 15.1574 13.24 16.0827 13.3159C16.1418 13.3207 16.2025 13.3199 16.2616 13.3191C16.2728 13.3191 16.2847 13.3079 16.2959 13.3023C16.3175 12.9726 16.3159 12.6388 16.3654 12.3139C16.6392 10.5127 17.5901 9.18335 19.1997 8.33704C20.157 7.83325 21.1869 7.66239 22.256 7.8077C23.2085 7.93704 24.0812 8.28834 24.8261 8.9063C25.0376 9.08195 25.2213 9.14263 25.4784 9.02766C26.1378 8.73225 26.8093 8.46239 27.4672 8.16378C27.9255 7.9562 28.4197 8.18854 28.4772 8.67476C28.4923 8.80091 28.4596 8.93983 28.4221 9.06359C28.3622 9.25999 28.2855 9.45241 28.2041 9.64163C28.1259 9.82287 28.0324 9.99772 27.9279 10.2117C28.0141 10.1869 28.0724 10.1702 28.1306 10.155C28.4165 10.08 28.6983 10.183 28.8668 10.4233C29.0392 10.6692 29.048 10.9319 28.8676 11.1842C28.3015 11.9794 27.6293 12.678 26.8788 13.2991C26.7063 13.4412 26.6249 13.5849 26.6225 13.8157C26.6001 15.9674 26.0883 18.0001 25.0967 19.9083C24.3853 21.2768 23.46 22.4872 22.335 23.5418C20.5969 25.1714 18.5714 26.282 16.2552 26.8456C14.0771 27.3758 11.8919 27.3654 9.71706 26.8273C8.347 26.4887 7.05678 25.9466 5.85838 25.1953C5.54061 24.9965 5.40967 24.7115 5.4983 24.4097C5.5941 24.0832 5.86317 23.8899 6.24081 23.8979C7.26357 23.9203 8.27595 23.8373 9.26437 23.5674C9.83842 23.4109 10.4013 23.2137 10.969 23.0349C10.9618 23.0133 10.9538 22.9917 10.9466 22.9702ZM8.75419 25.0955C8.86437 25.1395 8.92345 25.1706 8.98653 25.1866C9.66198 25.3582 10.331 25.5618 11.0145 25.6895C12.949 26.052 14.858 25.8884 16.7262 25.2951C18.9123 24.6005 20.7614 23.375 22.2664 21.6456C23.6612 20.0448 24.5762 18.1957 25.0145 16.1175C25.2109 15.1849 25.2971 14.2372 25.2676 13.2824C25.2588 12.9869 25.3594 12.7586 25.6077 12.5838C25.8145 12.4384 25.9997 12.2628 26.1945 12.0999C26.0476 12.0432 25.9207 12.0488 25.8001 12.0233C25.6803 11.9977 25.5486 11.9666 25.4536 11.8955C25.0592 11.6001 25.0808 11.0676 25.4847 10.781C25.6923 10.6332 25.8951 10.4776 26.0995 10.3251C26.0891 10.3075 26.0788 10.2899 26.0684 10.2732C26.0133 10.2867 25.9574 10.2987 25.9023 10.3147C25.654 10.3865 25.4073 10.4656 25.1566 10.5319C24.8676 10.6077 24.6121 10.5646 24.3925 10.3323C24.0229 9.94183 23.5925 9.62646 23.0903 9.43165C21.658 8.87516 20.3031 9.03724 19.1135 10.0113C17.9183 10.9893 17.4823 12.2867 17.7546 13.8109C17.8552 14.373 17.5638 14.7426 16.9969 14.7331C14.969 14.6979 13.0488 14.2348 11.2508 13.2863C9.95659 12.6037 8.81406 11.7255 7.82085 10.6508C7.78891 10.6165 7.7474 10.5901 7.68992 10.5446C7.48872 11.2057 7.46078 11.846 7.5997 12.484C7.84002 13.5897 8.47315 14.4185 9.44081 14.9989C9.74421 15.181 9.85998 15.482 9.76497 15.8005C9.67715 16.0951 9.40409 16.2947 9.05997 16.2668C8.65758 16.2332 8.25838 16.1638 7.85758 16.1087C7.7977 16.1007 7.73782 16.0879 7.65558 16.0736C7.67235 16.1478 7.67554 16.1877 7.69071 16.2229C7.77614 16.4313 7.8472 16.6492 7.95499 16.8456C8.52505 17.8828 9.38652 18.5358 10.5506 18.7826C10.9738 18.872 11.1901 19.1323 11.1734 19.5107C11.1574 19.8692 10.8923 20.1167 10.4708 20.1662C10.2688 20.1893 10.0668 20.2085 9.83363 20.2333C9.8999 20.337 9.94461 20.4241 10.0045 20.4991C10.7678 21.466 11.765 21.969 12.9969 22.0065C13.3131 22.0161 13.5678 22.2013 13.646 22.472C13.7362 22.7834 13.6452 23.0732 13.3841 23.2448C12.3662 23.9131 11.2684 24.4137 10.1003 24.7538C9.67075 24.8784 9.23642 24.9742 8.75419 25.0955Z" fill="currentColor" />
</svg>
